<svg width="9" height="8" viewBox="0 0 9 8" fill="none" xmlns="http://www.w3.org/2000/svg">
<path d="M8.16457 5.75505L8.14983 0.0736555L2.46843 0.0589137C2.40924 0.0508997 2.34901 0.0556966 2.29184 0.0729804C2.23466 0.0902638 2.18187 0.119631 2.13703 0.159093C2.09219 0.198554 2.05635 0.247189 2.03194 0.301705C2.00753 0.356222 1.99512 0.415346 1.99554 0.475077C1.99597 0.534806 2.00922 0.593748 2.03441 0.64791C2.0596 0.702072 2.09613 0.75019 2.14153 0.789007C2.18692 0.827824 2.24013 0.856434 2.29755 0.872899C2.35497 0.889364 2.41525 0.8933 2.47433 0.884441L6.73169 0.902132L1.09157 6.54225C1.01337 6.62045 0.969444 6.7265 0.969444 6.83708C0.969444 6.94767 1.01337 7.05372 1.09157 7.13192C1.16976 7.21011 1.27582 7.25404 1.3864 7.25404C1.49698 7.25404 1.60304 7.21011 1.68123 7.13192L7.32135 1.49179L7.33904 5.74916C7.33943 5.8598 7.38376 5.96576 7.46228 6.04372C7.54079 6.12168 7.64706 6.16526 7.7577 6.16487C7.86835 6.16448 7.9743 6.12015 8.05227 6.04164C8.13023 5.96312 8.1738 5.85685 8.17341 5.74621L8.16457 5.75505Z" fill="#3822E4"/>
</svg>
