<svg width="87" height="81" viewBox="0 0 87 81" fill="none" xmlns="http://www.w3.org/2000/svg">
<path d="M85.4554 38.4997C79.2499 29.4607 66.4207 42.7633 43.0071 45.4671C34.3381 46.4669 26.5272 53.7059 16.457 53.0161C12.328 52.7325 6.56236 40.8526 2.2459 42.7465C0.0251874 43.7223 -0.993842 46.9788 1.28936 49.4255L26.6401 79.6743C26.6401 79.6743 27.9283 81.1596 32.2688 80.1309C33.3383 80.4458 49.4169 74.0023 58.7131 61.1034C60.9386 58.0151 63.5919 55.4435 66.339 53.2949C75.2579 46.7 84.9531 44.4024 84.9531 44.4024C86.1932 43.3786 86.484 42.2899 86.4167 41.3453C86.4985 39.7687 85.4554 38.4997 85.4554 38.4997Z" fill="#5C913B"/>
<path d="M27.4697 24.064C18.3777 36.6817 2.45541 42.6588 2.45541 42.6588C-0.515156 45.1752 1.99396 48.1409 1.99396 48.1409L27.0803 77.8442C27.0803 77.8442 28.3349 79.3271 32.56 78.2984C32.56 78.2984 48.4824 72.3333 57.5719 59.7156C66.9427 46.7133 83.8408 42.6084 83.8408 42.6084C86.8089 40.092 84.3022 37.1215 84.3022 37.1215L59.2158 7.42302C59.2158 7.42302 57.9613 5.93774 53.7361 6.96157C53.7361 6.96157 36.8404 11.0569 27.4697 24.064Z" fill="#A7D28B"/>
<path d="M52.7654 46.2379C60.0658 46.2379 65.984 40.3197 65.984 33.0193C65.984 25.7189 60.0658 19.8008 52.7654 19.8008C45.465 19.8008 39.5469 25.7189 39.5469 33.0193C39.5469 40.3197 45.465 46.2379 52.7654 46.2379Z" fill="#77B255"/>
<path d="M30.829 76.1032C28.7117 76.1032 27.9354 75.3149 27.8296 75.1948L5.21632 48.7985C5.17306 48.7481 4.02665 47.4358 4.16604 45.7679C4.25016 44.7561 4.7741 43.8548 5.72102 43.0881L5.87244 42.9968C6.01904 42.9391 20.6844 36.9115 28.9039 26.017C37.5993 14.4904 52.5988 9.5443 52.7478 9.49623C56.9417 8.52046 58.314 9.91442 58.4606 10.0778L80.7759 36.6207C80.8167 36.6639 81.9607 37.981 81.8214 39.6513C81.7372 40.6607 81.2133 41.562 80.2664 42.3287L80.0284 42.4464C79.8818 42.4825 65.2982 46.1068 56.8503 57.3017C48.4409 68.4533 33.7611 75.6682 33.6145 75.7379C32.4994 76.0023 31.5813 76.1032 30.829 76.1032ZM28.7357 74.4041C28.7381 74.4041 29.822 75.4039 33.218 74.6155C33.2372 74.5891 47.6598 67.4968 55.8962 56.5807C64.1566 45.6333 78.0673 41.723 79.6102 41.3169C80.2279 40.7857 80.5692 40.1969 80.6245 39.5648C80.7254 38.4112 79.8746 37.4186 79.8674 37.409L57.5521 10.8637C57.5473 10.8637 56.4706 9.86635 53.0722 10.6547C52.9737 10.6883 38.3276 15.5239 29.8653 26.7404C21.7755 37.4618 7.66054 43.552 6.41319 44.0759C5.76909 44.6167 5.4182 45.2199 5.36292 45.8664C5.26679 47.0104 6.11277 47.9982 6.11998 48.0078L28.7357 74.4041Z" fill="#5C913B"/>
<path d="M51.0242 52.6391L51.0098 66.9151L52.2042 68.3331C54.5331 66.2085 56.7706 63.8196 58.7054 61.1326C60.7122 58.3495 63.0434 55.9678 65.5021 53.9562L64.3413 52.5742L51.0242 52.6391Z" fill="#FFAC33"/>
<path d="M64.2968 52.5269L34.2403 16.9258C31.7985 18.935 29.4528 21.2783 27.458 24.0494C25.5089 26.7556 23.2401 29.1373 20.8848 31.2379L24.3985 35.3981L24.3961 35.4005L51.0134 66.9183C53.3687 64.8153 55.6111 62.4096 57.5626 59.701C59.5574 56.9323 61.9007 54.5914 64.3401 52.5822L64.2968 52.5269Z" fill="#FFE8B6"/>
<path d="M34.6897 53.5754C30.9476 49.1436 23.0261 56.3344 20.7669 53.6595C19.6734 52.3641 20.3776 50.6841 21.8148 49.4728C24.2302 47.43 25.9726 48.6196 27.0662 47.6943C27.8425 47.0406 27.8016 46.2403 27.3401 45.6899C26.2682 44.4233 23.5284 45.0843 21.399 46.3148L20.3632 45.0891C19.7167 44.3248 18.5727 44.2263 17.8084 44.8728C17.0441 45.5217 16.948 46.6609 17.5945 47.4252L18.6664 48.6965C17.0393 50.8548 16.4865 53.7196 18.4116 55.9956C22.0071 60.2495 30.0271 53.1788 32.5507 56.1686C33.4255 57.2069 33.1803 59.1872 31.3394 60.7398C28.5803 63.0735 26.0808 61.98 24.9584 62.9269C24.4104 63.3859 24.3119 64.2608 24.8959 64.9553C25.826 66.0537 28.7894 65.8181 31.6374 64.0445C31.6422 64.0493 31.6422 64.0541 31.6422 64.0589L32.8126 65.4432C33.4591 66.2075 34.6055 66.3012 35.3698 65.6595C36.1365 65.0106 36.2302 63.8666 35.5837 63.1023L34.4133 61.718C34.4013 61.7036 34.382 61.694 34.3676 61.6795C36.2879 59.329 36.9368 56.2311 34.6897 53.5754Z" fill="#5C913B"/>
<path d="M77.8955 77.6898C77.9171 77.6705 77.9412 77.6561 77.9628 77.6393C78.1262 77.4759 78.2536 77.2884 78.3978 77.1081C78.4988 76.9832 78.6117 76.863 78.7054 76.7356C78.7896 76.6155 78.8593 76.4929 78.9362 76.3703C82.349 71.1141 80.1138 62.2024 73.3579 55.4442C66.5997 48.6859 57.6856 46.4507 52.4318 49.8659C52.3068 49.9404 52.1842 50.0101 52.0641 50.0967C51.9367 50.1904 51.8141 50.3033 51.694 50.4019C51.5161 50.5485 51.3286 50.6735 51.1628 50.8393C51.1412 50.8609 51.1268 50.885 51.1099 50.9066C51.0835 50.933 51.0523 50.9499 51.0234 50.9787L51.0378 50.9907C48.6345 53.5431 48.6056 57.4918 51.0234 59.912C53.446 62.3346 57.3924 62.301 59.9471 59.8976L59.9736 59.9264C59.9231 59.9745 59.8678 60.0058 59.8198 60.0538C57.2746 62.599 57.2145 66.6583 59.678 69.1265C62.1438 71.59 66.2079 71.5299 68.7507 68.9847C68.7987 68.9367 68.83 68.8814 68.8781 68.8309L68.9045 68.8598C66.5011 71.4121 66.4699 75.3609 68.8925 77.7835C71.3127 80.2013 75.259 80.1724 77.8114 77.7691L77.8258 77.7835C77.8498 77.7498 77.8691 77.7186 77.8955 77.6898Z" fill="#E1E8ED"/>
<path d="M51.0264 60.01C53.2039 62.185 56.6046 62.3629 59.1258 60.6373C60.1808 58.8347 60.4837 57.1211 60.4837 56.5852C55.1794 60.5411 50.4448 56.6068 49.3849 54.2539C48.9451 56.2872 49.4786 58.4598 51.0264 60.01ZM68.5686 69.2389C69.2848 68.2319 69.84 67.2585 70.0996 66.6C66.7228 69.6956 60.2674 67.4292 58.311 62.5191C57.4506 64.8023 57.8904 67.4316 59.6834 69.2245C62.0915 71.6327 66.0138 71.6134 68.5686 69.2389ZM77.8312 77.879L77.9009 77.7925C77.9249 77.7733 77.949 77.7589 77.9682 77.7396C78.134 77.5762 78.2614 77.3888 78.4032 77.2109C78.5065 77.0835 78.6171 76.9658 78.7108 76.836C78.7974 76.7182 78.8671 76.5932 78.944 76.4707C79.1002 76.2303 79.1843 75.9467 79.3165 75.692C73.2408 78.4102 68.7056 73.7981 67.4342 71.4981C66.7252 73.702 67.1867 76.1702 68.8979 77.8838C71.3157 80.304 75.262 80.2752 77.8168 77.8694L77.8312 77.879Z" fill="#CCD6DD"/>
<path d="M33.4332 29.4072L33.5005 29.3544C33.6663 29.1909 33.7937 29.0035 33.9355 28.8256C34.0365 28.7006 34.147 28.5829 34.2407 28.4531C34.3273 28.3329 34.397 28.2104 34.4739 28.0878C37.8867 22.8316 35.6491 13.9175 28.8932 7.16163C22.135 0.403353 13.2233 -1.83419 7.9671 1.5786C7.84452 1.65551 7.71955 1.72521 7.59938 1.81173C7.4696 1.90546 7.35183 2.01601 7.22686 2.11696C7.04901 2.26116 6.86154 2.38613 6.69812 2.55197C6.67649 2.5736 6.66206 2.60003 6.64524 2.61926C6.6188 2.64329 6.58516 2.66492 6.55872 2.69136L6.57074 2.70338C4.16737 5.25576 4.13853 9.2045 6.55872 11.6247C8.97891 14.0449 12.9277 14.016 15.48 11.6127L15.5065 11.6391C15.456 11.6848 15.4007 11.7184 15.3527 11.7665C12.8075 14.3117 12.7474 18.371 15.2133 20.8392C17.6791 23.3075 21.7408 23.245 24.286 20.6998C24.334 20.6518 24.3653 20.5965 24.4134 20.546L24.4398 20.5724C22.0364 23.1248 22.0052 27.0736 24.4278 29.4938C26.848 31.9139 30.7943 31.8851 33.3467 29.4793L33.3587 29.4938C33.3851 29.4673 33.4068 29.4361 33.4332 29.4072Z" fill="#E1E8ED"/>
<path d="M6.55376 11.6281C8.73121 13.8055 12.132 13.9834 14.6531 12.2529C15.7082 10.4504 16.0086 8.73922 16.0086 8.20326C10.7068 12.1568 5.96974 8.22009 4.91225 5.86719C4.47244 7.90284 5.00598 10.0779 6.55376 11.6281ZM24.1008 20.8522C24.8146 19.8452 25.3697 18.8766 25.6269 18.2181C22.2478 21.3137 15.7923 19.0449 13.8384 14.1348C12.978 16.418 13.4178 19.0473 15.2083 20.8402C17.6213 23.2508 21.546 23.2291 24.1008 20.8522ZM33.3561 29.4971C33.3826 29.4707 33.4042 29.4394 33.4282 29.4106L33.4955 29.3577C33.6614 29.1943 33.7887 29.0068 33.9305 28.829C34.0315 28.704 34.142 28.5863 34.2358 28.4565C34.3223 28.3363 34.392 28.2137 34.4689 28.0912C34.6251 27.8508 34.7092 27.5648 34.8414 27.3101C28.7657 30.0283 24.2305 25.4186 22.9592 23.1186C22.2502 25.3225 22.7116 27.7907 24.4228 29.5019C26.843 31.9221 30.7893 31.8933 33.3417 29.4875L33.3561 29.4971Z" fill="#CCD6DD"/>
</svg>
