<svg width="174" height="174" viewBox="0 0 174 174" fill="none" xmlns="http://www.w3.org/2000/svg">
<path d="M100.898 48.7007L116.14 21.5216L126.499 27.3326L111.259 54.5155L100.898 48.7007Z" fill="#CCD6DD"/>
<path d="M90.5343 158.237C119.527 150.068 136.407 119.942 128.237 90.949C120.067 61.9565 89.9412 45.0764 60.9487 53.2463C31.9562 61.4161 15.0761 91.5421 23.2459 120.535C31.4158 149.527 61.5418 166.407 90.5343 158.237Z" fill="#31373D"/>
<path d="M83.2274 60.4893L98.4657 33.2989L125.656 48.5373L110.418 75.7277L83.2274 60.4893Z" fill="#31373D"/>
<path d="M128.444 34.2241C136.728 31.8898 141.55 23.2824 139.216 14.9988C136.882 6.71526 128.275 1.89237 119.991 4.22661C111.707 6.56085 106.884 15.1683 109.219 23.4519C111.553 31.7354 120.16 36.5583 128.444 34.2241Z" fill="#F18F26"/>
<path d="M126.329 26.7292C130.471 25.5621 132.883 21.2584 131.716 17.1166C130.548 12.9748 126.245 10.5634 122.103 11.7305C117.961 12.8976 115.55 17.2013 116.717 21.3431C117.884 25.4849 122.188 27.8964 126.329 26.7292Z" fill="#FDCB58"/>
</svg>
