<svg width="134" height="133" viewBox="0 0 134 133" fill="none" xmlns="http://www.w3.org/2000/svg">
<path d="M85.1144 75.1864L85.0452 48.5217L58.3805 48.4525C58.1027 48.4149 57.82 48.4374 57.5517 48.5186C57.2833 48.5997 57.0355 48.7375 56.8251 48.9227C56.6146 49.1079 56.4464 49.3362 56.3319 49.592C56.2173 49.8479 56.1591 50.1254 56.1611 50.4057C56.1631 50.6861 56.2253 50.9627 56.3435 51.2169C56.4617 51.4711 56.6331 51.6969 56.8462 51.8791C57.0593 52.0613 57.309 52.1956 57.5785 52.2728C57.848 52.3501 58.1309 52.3686 58.4082 52.327L78.3894 52.41L51.9184 78.881C51.5514 79.248 51.3452 79.7457 51.3452 80.2647C51.3452 80.7837 51.5514 81.2815 51.9184 81.6485C52.2854 82.0155 52.7832 82.2216 53.3022 82.2216C53.8212 82.2216 54.3189 82.0155 54.6859 81.6485L81.1569 55.1775L81.2399 75.1587C81.2417 75.678 81.4498 76.1753 81.8183 76.5412C82.1867 76.9071 82.6855 77.1116 83.2048 77.1098C83.7241 77.108 84.2214 76.8999 84.5873 76.5314C84.9532 76.1629 85.1577 75.6642 85.1559 75.1449L85.1144 75.1864Z" fill="#3822E4"/>
<path d="M59.5374 119.852L61.172 120.125L54.2957 132.211L52.6863 131.943L50.1071 118.278L51.7417 118.551L53.7806 130.031L53.8812 130.048L59.5374 119.852ZM58.0946 124.781L51.506 123.681L51.7368 122.298L58.3254 123.397L58.0946 124.781Z" fill="#A49AEF"/>
<path d="M31.9271 124.491L38.1399 113.011L39.4628 113.727L33.25 125.207L31.9271 124.491Z" fill="#A49AEF"/>
<path d="M26.8036 104.737L21.6211 113.562L20.5505 112.4L24.632 105.766L24.5629 105.691L17.6323 109.23L16.5445 108.048L20.6417 101.469L20.5727 101.394L13.6436 104.897L12.573 103.734L21.7961 99.2976L22.7976 100.386L18.7147 107.055L18.8183 107.168L25.8021 103.649L26.8036 104.737Z" fill="#A49AEF"/>
<path d="M15.0035 87.4357C15.2527 88.0039 15.3719 88.5664 15.361 89.1233C15.3462 89.682 15.1942 90.1871 14.9051 90.6387C14.6121 91.0921 14.1738 91.4467 13.5901 91.7028C13.0764 91.9281 12.6157 92.0095 12.2078 91.9472C11.7961 91.8865 11.4246 91.727 11.0932 91.4687C10.7618 91.2103 10.4617 90.8965 10.193 90.5272C9.91868 90.1557 9.66297 89.7737 9.42585 89.3812C9.11685 88.8672 8.87058 88.4485 8.68706 88.1254C8.49795 87.8 8.3245 87.5791 8.16673 87.4627C8.00725 87.3424 7.8166 87.3309 7.5948 87.4282L7.5481 87.4487C6.97219 87.7013 6.59383 88.0552 6.413 88.5104C6.23046 88.9617 6.2783 89.5044 6.55653 90.1387C6.84499 90.7963 7.21513 91.2488 7.66694 91.496C8.11876 91.7433 8.54138 91.8711 8.93482 91.8795L9.04137 93.3918C8.39418 93.3973 7.83348 93.272 7.35927 93.016C6.87947 92.7578 6.47769 92.4237 6.15394 92.0135C5.8246 91.6012 5.56093 91.1693 5.36293 90.7179C5.23662 90.43 5.12656 90.0839 5.03274 89.6796C4.93332 89.2731 4.91187 88.8487 4.96838 88.4063C5.02319 87.96 5.21146 87.5271 5.53319 87.1076C5.85493 86.6881 6.37185 86.3221 7.08396 86.0098L12.9909 83.4187L13.5952 84.7962L12.3811 85.3288L12.4118 85.3988C12.6473 85.4069 12.9238 85.4712 13.2412 85.5918C13.5586 85.7124 13.8745 85.9196 14.1888 86.2132C14.5032 86.5068 14.7748 86.9143 15.0035 87.4357ZM13.6739 87.7684C13.435 87.2236 13.1265 86.8114 12.7486 86.5317C12.3691 86.2481 11.9682 86.0853 11.546 86.0431C11.1221 85.997 10.7234 86.0559 10.3498 86.2198L9.08905 86.7728C9.1847 86.8004 9.30523 86.9007 9.45065 87.0735C9.59047 87.2442 9.73811 87.4486 9.89357 87.6866C10.0434 87.9225 10.1868 88.1542 10.3238 88.3818C10.4552 88.6072 10.563 88.7896 10.6473 88.929C10.851 89.2665 11.0737 89.5678 11.3153 89.8331C11.5513 90.0961 11.8143 90.2777 12.1042 90.3779C12.3884 90.4759 12.7057 90.4481 13.0559 90.2945C13.5345 90.0846 13.8188 89.7488 13.9086 89.2871C13.9928 88.8233 13.9146 88.3171 13.6739 87.7684Z" fill="#A49AEF"/>
<path d="M13.9969 71.5434C14.0179 71.7975 14.0155 72.0258 13.9897 72.2284C13.968 72.4306 13.9413 72.5713 13.9095 72.6507L12.5567 72.3791C12.6197 72.0072 12.6269 71.6825 12.5784 71.4052C12.5298 71.1278 12.3843 70.8904 12.142 70.693C11.9036 70.4911 11.5291 70.3196 11.0185 70.1785L10.2331 69.9622L0.724609 74.3828L0.589866 72.7567L8.14154 69.4192L8.13312 69.3176L0.135107 67.2686L0.000363757 65.6425L11.523 68.8576C12.0424 69.0022 12.4787 69.1984 12.8318 69.4463C13.1891 69.6938 13.4633 69.993 13.6544 70.3439C13.8452 70.6905 13.9593 71.0903 13.9969 71.5434Z" fill="#A49AEF"/>
<path d="M5.16328 46.0715L5.20229 47.4752C4.96312 47.5023 4.72021 47.5701 4.47357 47.6786C4.22385 47.7819 3.99661 47.9523 3.79183 48.1898C3.58705 48.4272 3.43094 48.7581 3.3235 49.1823C3.17643 49.7631 3.18773 50.281 3.35743 50.736C3.52404 51.1859 3.81125 51.4624 4.21904 51.5657C4.58153 51.6575 4.90119 51.5982 5.17803 51.3878C5.45486 51.1773 5.73424 50.8097 6.01615 50.285L6.7189 48.9639C7.13974 48.1675 7.61497 47.615 8.1446 47.3064C8.67011 46.9968 9.26445 46.9259 9.92764 47.0939C10.4714 47.2316 10.9178 47.5112 11.2669 47.9327C11.6171 48.3501 11.8453 48.8682 11.9516 49.4868C12.058 50.1055 12.0178 50.7835 11.8311 51.5208C11.5859 52.4888 11.173 53.2368 10.5922 53.7648C10.0114 54.2927 9.29592 54.5389 8.4458 54.5034L8.45027 53.0317C8.99443 53.0292 9.44062 52.877 9.78884 52.5751C10.1381 52.269 10.3884 51.8174 10.5396 51.2201C10.7117 50.5404 10.7042 49.9643 10.5171 49.4918C10.3268 49.014 10.0278 48.7235 9.62 48.6202C9.29047 48.5368 8.98528 48.5822 8.70443 48.7566C8.41947 48.9299 8.16087 49.2414 7.92866 49.691L7.15738 51.1789C6.73132 51.9959 6.25041 52.5535 5.71463 52.8518C5.17577 53.1449 4.57887 53.2085 3.92393 53.0427C3.38844 52.9071 2.95281 52.6368 2.61704 52.2317C2.28232 51.8226 2.06379 51.3268 1.96148 50.7442C1.8602 50.1575 1.89406 49.5305 2.06304 48.8631C2.30087 47.924 2.69355 47.2388 3.24107 46.8076C3.78963 46.3723 4.43037 46.1269 5.16328 46.0715Z" fill="#A49AEF"/>
<path d="M28.9401 11.9019C28.5658 11.6493 28.1838 11.4594 27.7939 11.3321C27.4048 11.1988 27.0118 11.1331 26.6149 11.1351C26.2213 11.1345 25.8295 11.2053 25.4393 11.3474C25.0492 11.4895 24.668 11.7054 24.2958 11.9951C23.6855 12.4701 23.2532 13.0597 22.9989 13.7638C22.7446 14.4678 22.7088 15.2415 22.8913 16.0848C23.0738 16.9281 23.5122 17.7958 24.2064 18.6877C24.9007 19.5797 25.6358 20.2163 26.4118 20.5977C27.1879 20.979 27.9534 21.129 28.7084 21.0475C29.4635 20.9659 30.1595 20.6773 30.7966 20.1814C31.3868 19.722 31.8087 19.1918 32.0622 18.5905C32.3166 17.9834 32.3894 17.3505 32.2807 16.692C32.1728 16.0276 31.8735 15.3802 31.3828 14.7498L31.8277 14.5327L28.7294 16.9443L27.8681 15.8377L31.7914 12.7841L32.6526 13.8907C33.3129 14.739 33.706 15.6177 33.8319 16.5266C33.9612 17.4329 33.8434 18.3054 33.4784 19.144C33.1142 19.9767 32.5231 20.7115 31.7049 21.3483C30.7928 22.0582 29.8244 22.4673 28.7995 22.5758C27.7781 22.6816 26.7665 22.4889 25.765 21.9977C24.7668 21.5038 23.8449 20.7137 22.9993 19.6273C22.3651 18.8125 21.9038 17.995 21.6154 17.1748C21.3278 16.3487 21.2064 15.5493 21.2512 14.7767C21.2961 14.0042 21.4982 13.2815 21.8576 12.6087C22.217 11.9359 22.727 11.3424 23.3876 10.8282C23.9308 10.4054 24.501 10.0935 25.0984 9.89241C25.6965 9.68537 26.2961 9.58752 26.8972 9.59887C27.4991 9.60425 28.0846 9.7166 28.6537 9.93591C29.2203 10.1519 29.7449 10.4731 30.2277 10.8997L28.9401 11.9019Z" fill="#A49AEF"/>
<path d="M45.2695 13.5371L42.0907 4.27749L43.4652 3.80564L43.9453 5.20423L44.0418 5.17112C44.0533 4.65501 44.2311 4.1784 44.5752 3.74128C44.9193 3.30417 45.3687 2.99042 45.9233 2.80002C46.0278 2.76414 46.1591 2.72131 46.3172 2.67152C46.4754 2.62174 46.596 2.58706 46.6791 2.56751L47.1758 4.01433C47.1234 4.01883 47.0067 4.03868 46.8256 4.0739C46.6472 4.10371 46.4635 4.15104 46.2746 4.21589C45.8245 4.37041 45.455 4.60283 45.1662 4.91314C44.88 5.21804 44.691 5.57045 44.5992 5.97037C44.51 6.36489 44.5371 6.77114 44.6806 7.18911L46.6922 13.0487L45.2695 13.5371Z" fill="#A49AEF"/>
<path d="M65.255 10.1215C64.3117 10.1215 63.498 9.91333 62.8139 9.49691C62.134 9.07624 61.6092 8.48985 61.2395 7.73775C60.8741 6.98139 60.6914 6.10182 60.6914 5.09901C60.6914 4.0962 60.8741 3.21238 61.2395 2.44752C61.6092 1.67842 62.1234 1.07929 62.782 0.650123C63.4449 0.216708 64.2182 0 65.1021 0C65.612 0 66.1155 0.0849832 66.6126 0.25495C67.1098 0.424917 67.5623 0.701113 67.9702 1.08354C68.3782 1.46172 68.7032 1.96312 68.9454 2.58775C69.1876 3.21238 69.3087 3.98148 69.3087 4.89505V5.53243L61.7622 5.53243V4.23218L67.779 4.23218C67.779 3.67978 67.6686 3.18688 67.4476 2.75347C67.2309 2.32005 66.9207 1.97799 66.517 1.72729C66.1176 1.47659 65.6459 1.35124 65.1021 1.35124C64.5029 1.35124 63.9845 1.49996 63.5469 1.7974C63.1134 2.09059 62.7799 2.47302 62.5462 2.94468C62.3125 3.41634 62.1956 3.92199 62.1956 4.46163V5.32847C62.1956 6.06782 62.3231 6.69458 62.578 7.20873C62.8372 7.71863 63.1963 8.10743 63.6552 8.37512C64.1141 8.63857 64.6474 8.7703 65.255 8.7703C65.6502 8.7703 66.0071 8.71506 66.3258 8.60458C66.6488 8.48985 66.9271 8.31989 67.1608 8.09468C67.3945 7.86522 67.5751 7.58053 67.7025 7.24059L69.1558 7.64852C69.0028 8.14142 68.7457 8.57484 68.3845 8.94876C68.0234 9.31844 67.5772 9.60739 67.046 9.81559C66.5149 10.0196 65.9179 10.1215 65.255 10.1215Z" fill="#A49AEF"/>
<path d="M82.3231 12.9551C81.7364 12.7537 81.2418 12.4604 80.8394 12.0751C80.4384 11.6859 80.1697 11.232 80.0333 10.7134C79.8982 10.1908 79.9341 9.62811 80.1411 9.02526C80.3232 8.49476 80.5753 8.10061 80.8974 7.8428C81.2209 7.58097 81.5899 7.41563 82.0044 7.34677C82.4189 7.27792 82.853 7.26971 83.3068 7.32214C83.7659 7.37193 84.2201 7.44251 84.6695 7.53388C85.2569 7.65469 85.7317 7.75703 86.0938 7.8409C86.4612 7.92212 86.7412 7.94411 86.9337 7.90686C87.1302 7.871 87.2678 7.73852 87.3464 7.50944L87.363 7.46121C87.5672 6.86641 87.5631 6.34835 87.3507 5.90705C87.1423 5.46712 86.7106 5.1347 86.0555 4.90981C85.3763 4.67664 84.7927 4.64253 84.3048 4.80748C83.8169 4.97243 83.4366 5.1968 83.164 5.48058L81.9792 4.53473C82.4135 4.05486 82.8854 3.72717 83.3949 3.55166C83.9098 3.37352 84.4278 3.30424 84.9488 3.34384C85.4752 3.3808 85.9715 3.4793 86.4377 3.63935C86.7351 3.74144 87.0643 3.89489 87.4253 4.09968C87.7917 4.30183 88.1185 4.57351 88.4057 4.91471C88.6969 5.25728 88.8879 5.68899 88.9786 6.20984C89.0694 6.73069 88.9885 7.35885 88.736 8.09431L86.6416 14.1951L85.2189 13.7067L85.6494 12.4527L85.5771 12.4279C85.4116 12.5957 85.1771 12.7556 84.8734 12.9074C84.5696 13.0592 84.2033 13.1513 83.7744 13.1838C83.3454 13.2162 82.8617 13.14 82.3231 12.9551ZM82.9789 11.7516C83.5416 11.9448 84.0537 11.997 84.5154 11.9085C84.9812 11.8212 85.3725 11.6366 85.6895 11.3546C86.0104 11.0739 86.2372 10.7407 86.3696 10.3549L86.8166 9.05272C86.7315 9.10436 86.5761 9.12514 86.3505 9.11506C86.1302 9.10234 85.8799 9.07256 85.5994 9.0257C85.3244 8.97621 85.0568 8.92477 84.7966 8.87138C84.5418 8.81535 84.3345 8.77117 84.1749 8.73884C83.7886 8.66013 83.4161 8.61985 83.0573 8.61798C82.704 8.61348 82.3922 8.68393 82.1222 8.82932C81.8575 8.97208 81.6631 9.22431 81.539 9.58602C81.3692 10.0803 81.4238 10.5169 81.7026 10.8956C81.9868 11.2717 82.4122 11.5571 82.9789 11.7516Z" fill="#A49AEF"/>
<path d="M106.928 15.4398L106.145 16.4458L102.142 13.3296L102.925 12.3236L106.928 15.4398ZM105.532 11.3809L106.719 12.3048L100.988 19.6684C100.727 20.0037 100.58 20.2931 100.546 20.5364C100.519 20.779 100.56 20.9889 100.67 21.1659C100.786 21.3422 100.931 21.4983 101.106 21.634C101.236 21.7358 101.349 21.8126 101.443 21.8644C101.54 21.9129 101.618 21.9517 101.676 21.9808L101.087 23.235C100.983 23.2025 100.847 23.1453 100.68 23.0632C100.509 22.9845 100.314 22.8591 100.092 22.6868C99.7571 22.4258 99.4846 22.098 99.2749 21.7032C99.0685 21.3111 98.9746 20.8853 98.993 20.4258C99.0148 19.9689 99.2005 19.5158 99.5503 19.0664L105.532 11.3809Z" fill="#A49AEF"/>
<path d="M117.308 47.313L129.086 40.6484L129.48 42.2055L119.844 47.4598L119.875 47.5834L130.863 47.6675L131.302 49.3975L121.678 54.7013L121.709 54.8249L132.685 54.8595L133.079 56.4166L119.549 56.1609L119.148 54.5791L128.525 49.2328L128.5 49.134L117.709 48.8947L117.308 47.313Z" fill="#A49AEF"/>
<path d="M119.648 69.4875C119.721 68.6067 119.995 67.8512 120.469 67.2211C120.943 66.5953 121.573 66.1272 122.357 65.817C123.141 65.5111 124.038 65.3999 125.045 65.4834C126.062 65.5676 126.934 65.8253 127.661 66.2565C128.388 66.692 128.934 67.2574 129.298 67.9527C129.663 68.6523 129.808 69.4425 129.735 70.3233C129.662 71.2041 129.389 71.9575 128.915 72.5834C128.44 73.2135 127.809 73.6813 127.021 73.9869C126.232 74.2968 125.329 74.4096 124.313 74.3254C123.305 74.2418 122.439 73.9825 121.717 73.5474C120.993 73.1165 120.45 72.5513 120.086 71.8517C119.721 71.1564 119.575 70.3683 119.648 69.4875ZM120.995 69.5991C120.939 70.2682 121.065 70.8329 121.373 71.2932C121.68 71.7536 122.104 72.1107 122.646 72.3645C123.188 72.6183 123.785 72.7722 124.437 72.8263C125.089 72.8803 125.705 72.8269 126.286 72.6661C126.866 72.5053 127.348 72.2233 127.731 71.8201C128.114 71.4169 128.333 70.8808 128.389 70.2117C128.444 69.5427 128.316 68.9778 128.005 68.5171C127.693 68.0564 127.264 67.6989 126.718 67.4448C126.172 67.1906 125.573 67.0365 124.921 66.9824C124.269 66.9284 123.655 66.982 123.079 67.1432C122.503 67.3043 122.025 67.5867 121.646 67.9902C121.267 68.3937 121.05 68.93 120.995 69.5991Z" fill="#A49AEF"/>
<path d="M116.193 85.2715L125.159 89.2042L124.575 90.535L123.221 89.941L123.18 90.0344C123.552 90.3924 123.782 90.846 123.871 91.3953C123.959 91.9445 123.886 92.4876 123.65 93.0246C123.606 93.1258 123.548 93.2514 123.478 93.4014C123.407 93.5515 123.351 93.6637 123.309 93.7381L121.908 93.1237C121.94 93.0821 122.005 92.9828 122.102 92.8257C122.201 92.6742 122.29 92.507 122.37 92.3241C122.562 91.8883 122.641 91.4591 122.608 91.0364C122.578 90.6193 122.446 90.2416 122.214 89.9032C121.984 89.5704 121.667 89.3152 121.262 89.1377L115.589 86.6491L116.193 85.2715Z" fill="#A49AEF"/>
<path d="M109.34 103.327L110.727 104.569L110.519 104.794L110.826 110.898L109.566 112.267L109.261 105.784L109.348 105.69L109.34 103.327ZM107.664 99.8779L117.268 108.719L116.249 109.825L106.645 100.985L107.664 99.8779ZM103.451 104.455L109.605 104.922L109.648 106.418L102.156 105.861L103.451 104.455Z" fill="#A49AEF"/>
<path d="M72.2752 125.932L72.0444 124.549L77.6774 123.609L77.9082 124.992L72.2752 125.932Z" fill="#A49AEF"/>
</svg>
