<svg width="19" height="19" viewBox="0 0 19 19" fill="none" xmlns="http://www.w3.org/2000/svg">
<path d="M5.64795 18.8442C4.85786 18.8267 4.07632 18.6765 3.33594 18.4001C2.69205 18.1513 2.10734 17.7707 1.61914 17.2827C1.13094 16.7947 0.750049 16.21 0.500977 15.5662C0.224734 14.8254 0.0745014 14.0436 0.0561523 13.2532C0.0121523 12.2442 0 11.9131 0 9.45312C0 6.92013 0.0101523 6.62322 0.0561523 5.64722C0.0736147 4.85671 0.223875 4.07479 0.500977 3.33423C0.750049 2.69043 1.13094 2.10571 1.61914 1.61768C2.10734 1.12965 2.69205 0.748845 3.33594 0.5C4.07673 0.223844 4.85854 0.0739182 5.64893 0.0561523C6.65693 0.0111523 6.9881 0 9.4541 0C11.9871 0 12.2818 0.0101523 13.2588 0.0561523C14.0493 0.0730089 14.8312 0.222963 15.5718 0.5C16.2156 0.748692 16.8005 1.12937 17.2886 1.61743C17.7766 2.10549 18.1571 2.69037 18.4058 3.33423C18.682 4.07501 18.8324 4.85682 18.8501 5.64722C18.8961 6.65622 18.9058 6.98712 18.9058 9.45312C18.9058 11.9861 18.8961 12.2812 18.8501 13.2532C18.8323 14.0436 18.6819 14.8254 18.4058 15.5662C18.1571 16.21 17.7766 16.7947 17.2886 17.2827C16.8005 17.7708 16.2156 18.1515 15.5718 18.4001C14.8312 18.6757 14.0498 18.8258 13.2598 18.8442C12.2518 18.8892 11.9201 18.9001 9.45508 18.9001C6.92008 18.8951 6.62595 18.8902 5.64795 18.8442ZM5.74805 2.17407H5.70312C5.14969 2.18144 4.60145 2.28294 4.08203 2.47412H4.07715C3.71381 2.61482 3.38391 2.82972 3.1084 3.10522C2.83289 3.38073 2.61774 3.71088 2.47705 4.07422C2.28378 4.59812 2.18017 5.15089 2.1709 5.70923V5.76123C2.1389 6.68023 2.12598 7.0241 2.12598 9.4231C2.12598 11.8221 2.1389 12.1661 2.1709 13.0771V13.1292C2.18036 13.6865 2.28396 14.2383 2.47705 14.7612C2.61018 15.13 2.82664 15.463 3.10986 15.7341C3.38219 16.0155 3.71459 16.2319 4.08203 16.3672C4.60676 16.56 5.15981 16.6633 5.71875 16.6731C6.67675 16.7181 6.93615 16.7302 9.43115 16.7302C11.8682 16.7302 12.161 16.72 13.147 16.676C13.7045 16.6705 14.2567 16.5692 14.7798 16.3762C15.1475 16.2413 15.4802 16.0252 15.7529 15.7441C16.0338 15.47 16.2506 15.1369 16.3872 14.769C16.5798 14.2474 16.6829 13.6971 16.6929 13.1411C16.7379 12.1631 16.749 11.8411 16.749 9.43506C16.749 6.99806 16.7388 6.70607 16.6958 5.72607C16.6897 5.17024 16.5884 4.61965 16.396 4.09814C16.2564 3.73415 16.0418 3.40358 15.7661 3.12793C15.4905 2.85228 15.1599 2.6376 14.7959 2.49805C14.2743 2.30476 13.7232 2.20321 13.167 2.198C12.21 2.156 11.921 2.14404 9.45996 2.14404H9.38281L9.34912 2.12207C6.99312 2.12907 6.67407 2.1401 5.74707 2.1731L5.74805 2.17407ZM4.479 9.44922C4.479 8.4653 4.77077 7.50342 5.31738 6.6853C5.864 5.86719 6.6408 5.2296 7.5498 4.85303C8.45881 4.47645 9.45929 4.3777 10.4243 4.56958C11.3893 4.76146 12.2759 5.23524 12.9717 5.93091C13.6675 6.62657 14.1414 7.51304 14.3335 8.47803C14.5256 9.44302 14.4272 10.4432 14.0508 11.3523C13.6744 12.2614 13.0368 13.0384 12.2188 13.5852C11.4007 14.132 10.439 14.4239 9.45508 14.4241C8.13567 14.4227 6.87055 13.8982 5.9375 12.9653C5.00445 12.0325 4.47962 10.7674 4.47803 9.448L4.479 9.44922ZM6.63721 9.44922C6.6374 10.0065 6.80254 10.5511 7.1123 11.0144C7.42207 11.4777 7.8625 11.8389 8.37744 12.052C8.89238 12.2651 9.4588 12.3208 10.0054 12.2119C10.5519 12.1031 11.0537 11.8346 11.4478 11.4404C11.8418 11.0463 12.1101 10.5442 12.2188 9.99756C12.3274 9.45095 12.2719 8.88425 12.0586 8.36938C11.8453 7.85452 11.4839 7.41458 11.0205 7.10498C10.5571 6.79538 10.0124 6.63013 9.45508 6.63013C8.70768 6.63066 7.99108 6.92775 7.4624 7.45605C6.93372 7.98436 6.63582 8.7006 6.63477 9.448L6.63721 9.44922ZM13.0132 4.53711C13.0134 4.17809 13.1558 3.83394 13.4097 3.58008C13.6635 3.32621 14.0082 3.18337 14.3672 3.18311V3.18311C14.6349 3.1833 14.8966 3.26297 15.1191 3.41187C15.3417 3.56076 15.5149 3.77235 15.6172 4.01978C15.7195 4.2672 15.7462 4.53942 15.6938 4.802C15.6415 5.06459 15.5126 5.30561 15.3232 5.49487C15.1338 5.68413 14.8925 5.81307 14.6299 5.86523C14.3673 5.9174 14.095 5.89035 13.8477 5.78784C13.6003 5.68533 13.389 5.51195 13.2402 5.28931C13.0915 5.06666 13.0122 4.80486 13.0122 4.53711H13.0132Z" fill="white"/>
</svg>
