<svg width="19" height="19" viewBox="0 0 19 19" fill="none" xmlns="http://www.w3.org/2000/svg">
<path d="M4.13998 18.404H0.319978V6.11598H4.13998V18.404ZM2.22998 4.43998C1.79091 4.44195 1.36112 4.31368 0.994948 4.07139C0.628779 3.8291 0.342681 3.48367 0.172832 3.07878C0.00298247 2.67389 -0.0429892 2.22772 0.04073 1.79671C0.124449 1.36569 0.334099 0.969177 0.643169 0.657311C0.952239 0.345444 1.34685 0.132231 1.77709 0.0446317C2.20734 -0.0429671 2.6539 -0.00101669 3.0603 0.165178C3.4667 0.331373 3.8147 0.614348 4.06028 0.978319C4.30586 1.34229 4.438 1.77091 4.43998 2.20998C4.44053 2.79812 4.2085 3.36262 3.79449 3.78037C3.38049 4.19812 2.8181 4.43523 2.22998 4.43998V4.43998ZM18.42 18.404H14.613V12.423C14.613 10.997 14.584 9.16898 12.629 9.16898C10.645 9.16898 10.341 10.718 10.341 12.32V18.404H6.52998V6.11598H10.19V7.79298H10.243C10.6089 7.16661 11.1379 6.65126 11.7737 6.30186C12.4094 5.95247 13.128 5.78212 13.853 5.80898C17.715 5.80898 18.425 8.35198 18.425 11.655V18.405L18.42 18.404Z" fill="white"/>
</svg>
