<svg width="102" height="37" viewBox="0 0 102 37" fill="none" xmlns="http://www.w3.org/2000/svg">
<path d="M86.39 21.6992C86.39 17.7247 83.5834 14.8633 79.8158 14.8633C76.0533 14.8633 73.0332 17.9382 73.0332 21.6992C73.0332 25.4552 76.0788 28.5301 79.8463 28.5301C81.7021 28.5301 83.7206 27.9507 85.2256 26.5886C85.6578 26.1973 85.8256 25.1655 85.2053 24.5048C84.6003 23.8695 83.6444 23.9356 82.9732 24.4387C82.1902 25.0232 81.2547 25.4857 79.9989 25.4857C78.2396 25.4857 76.9533 24.4082 76.7753 22.8581H85.1087C85.7951 22.8581 86.39 22.3803 86.39 21.6992ZM82.836 20.3219H76.8313C77.1567 18.8327 78.2346 17.9077 79.8158 17.9077C81.4021 17.9077 82.536 18.9191 82.836 20.3219Z" fill="black"/>
<path d="M99.5217 1.67795C98.4387 1.2866 96.3236 0.976562 94.1271 0.976562C86.2157 0.976562 76.8401 6.80111 70.5201 16.0564C67.2814 20.7983 66.4882 23.1515 66.4882 23.1515C66.4882 23.1515 66.656 18.9788 66.112 16.3003C65.7611 14.5672 65.1561 14.0945 64.2511 13.8658C62.8986 13.5253 61.6224 14.247 60.875 15.0754C61.7241 15.8632 62.4257 17.4337 62.624 19.1618C62.8732 21.3574 62.9088 23.3701 62.9444 27.4056C62.9494 28.0816 62.8172 28.3357 63.3359 28.3357H66.2696C66.8848 28.3357 67.2915 28.0968 67.4542 27.7055C68.5881 24.9507 71.8218 18.2825 75.7317 14.2267C82.2906 7.39577 87.8987 5.04257 93.8983 5.04257C96.7506 5.04257 98.6878 5.42375 99.9335 6.24204C101.225 5.89134 102.593 2.77069 99.5217 1.67795Z" fill="black"/>
<path d="M101.211 26.7665V21.5264C101.211 17.7654 98.4753 14.8633 94.3671 14.8633C90.5995 14.8633 87.5234 17.9382 87.5234 21.6992C87.5234 25.6585 90.0453 28.5301 93.9196 28.5301C95.6534 28.5301 97.2957 27.4526 97.6872 26.5886C97.6872 27.7728 98.4905 28.5301 99.4464 28.5301C100.433 28.5301 101.211 27.6356 101.211 26.6496V26.7665ZM97.5957 21.6992C97.5957 23.6967 96.3144 25.3078 94.2501 25.3078C92.1909 25.3078 91.1435 23.6967 91.1435 21.6992C91.1435 19.6967 92.3079 18.0856 94.3721 18.0856C96.4313 18.0856 97.5957 19.6967 97.5957 21.6992Z" fill="black"/>
<path d="M18.7205 26.736V9.84688C18.7205 8.86596 17.9121 8.02734 16.9257 8.02734C15.9393 8.02734 15.1055 8.86087 15.1055 9.84688V26.736C15.1055 27.7271 15.9393 28.5302 16.9257 28.5302C17.9121 28.5302 18.7205 27.7271 18.7205 26.736Z" fill="black"/>
<path d="M33.8123 26.7665V21.5264C33.8123 17.7654 31.0768 14.8633 26.9686 14.8633C23.2062 14.8633 20.125 17.9382 20.125 21.6992C20.125 25.6585 22.6469 28.5301 26.5161 28.5301C28.2499 28.5301 29.8922 27.4526 30.2837 26.5886C30.2837 27.7728 31.0921 28.5301 32.048 28.5301C33.0343 28.5301 33.8123 27.6356 33.8123 26.6496V26.7665ZM30.1972 21.6992C30.1972 23.6967 28.9109 25.3078 26.8517 25.3078C24.7874 25.3078 23.7451 23.6967 23.7451 21.6992C23.7451 19.6967 24.9094 18.0856 26.9737 18.0856C29.0329 18.0856 30.1972 19.6967 30.1972 21.6992Z" fill="black"/>
<path d="M46.8534 26.7992C46.8534 25.9961 46.1671 25.3049 45.3586 25.3049H40.1013L46.345 17.6862C46.584 17.3864 46.7365 17.0306 46.7365 16.6393C46.7365 15.7752 46.0501 15.0586 45.1807 15.0586H36.7253C35.9169 15.0586 35.2305 15.7447 35.2305 16.5478C35.2305 17.3559 35.9169 18.042 36.7253 18.042H41.8656L35.622 25.6658C35.3525 25.9911 35.2356 26.3824 35.2356 26.7992C35.2356 27.5463 35.983 28.2629 36.7304 28.2884C37.5693 28.3188 38.4337 28.2884 39.3031 28.2884H45.3688C46.1671 28.2884 46.8534 27.6022 46.8534 26.7992Z" fill="black"/>
<path d="M61.0232 26.7665V21.5264C61.0232 17.7654 58.2878 14.8633 54.1796 14.8633C50.412 14.8633 47.3359 17.9382 47.3359 21.6992C47.3359 25.6585 49.8578 28.5301 53.727 28.5301C55.4608 28.5301 57.1031 27.4526 57.4946 26.5886C57.4946 27.7728 58.303 28.5301 59.2589 28.5301C60.2453 28.5301 61.0232 27.6356 61.0232 26.6496V26.7665ZM57.4082 21.6992C57.4082 23.6967 56.1218 25.3078 54.0626 25.3078C52.0034 25.3078 50.956 23.6967 50.956 21.6992C50.956 19.6967 52.1204 18.0856 54.1846 18.0856C56.2438 18.0856 57.4082 19.6967 57.4082 21.6992Z" fill="black"/>
<path d="M13.672 21.6914C13.672 17.9355 10.8654 14.8555 7.19445 14.8555C5.52168 14.8555 4.11838 15.75 3.49299 16.797C3.49299 15.6026 2.56763 14.8555 1.78971 14.8555C0.803338 14.8555 0 15.689 0 16.675V33.5692C0 34.5553 0.803338 35.3583 1.78971 35.3583C2.77609 35.3583 3.60994 34.5553 3.60994 33.5692V26.6774C4.05737 27.5414 5.52168 28.5274 7.18936 28.5274C10.8654 28.5274 13.672 25.4525 13.672 21.6914ZM10.0621 21.6914C10.0621 23.6889 8.89773 25.3 6.83854 25.3C4.77935 25.3 3.61502 23.6889 3.61502 21.6914C3.61502 19.694 4.77935 18.0829 6.83854 18.0829C8.89773 18.0829 10.0621 19.694 10.0621 21.6914Z" fill="black"/>
<path d="M101.21 34.5836C101.21 34.1668 100.834 33.9534 100.208 33.7501C99.5777 33.5417 99.359 33.4654 99.359 33.1757C99.359 32.8911 99.659 32.759 100.091 32.759C100.386 32.759 100.666 32.8352 100.915 32.9877C100.94 33.0029 100.971 33.008 101.001 33.008C101.052 33.008 101.108 32.9826 101.134 32.9318C101.144 32.9064 101.149 32.8809 101.149 32.8505C101.149 32.7996 101.123 32.7488 101.072 32.7183C100.788 32.5353 100.508 32.4337 100.066 32.4337C99.4658 32.4337 98.993 32.7081 98.993 33.1656C98.993 33.6077 99.3845 33.7907 99.8929 33.9686C100.569 34.1922 100.839 34.3244 100.839 34.5836C100.839 34.9292 100.432 35.0613 100.035 35.0613C99.6946 35.0613 99.3997 34.9546 99.115 34.7615C99.0896 34.7411 99.0591 34.7361 99.0235 34.7361C98.9777 34.7361 98.932 34.7564 98.9014 34.8021C98.8811 34.8225 98.876 34.858 98.876 34.8885C98.876 34.9343 98.9014 34.9851 98.937 35.0105C99.2777 35.2646 99.6844 35.3765 100.051 35.3765C100.757 35.3815 101.21 35.0461 101.21 34.5836ZM98.0473 33.9127C98.0473 34.5277 97.5846 35.041 96.9643 35.041C96.3389 35.041 95.8711 34.5277 95.8711 33.9127C95.8711 33.2926 96.3389 32.7844 96.9643 32.7844C97.5846 32.7793 98.0473 33.2926 98.0473 33.9127ZM98.4286 35.163V33.9127C98.4286 33.0995 97.7727 32.4439 96.9592 32.4439C96.1406 32.4439 95.4898 33.0995 95.4898 33.9127C95.4898 34.7259 96.1559 35.3815 96.949 35.3815C97.432 35.3815 97.8541 35.1172 98.0473 34.8326V35.163C98.0473 35.2697 98.1337 35.351 98.2405 35.351C98.3472 35.3561 98.4286 35.2748 98.4286 35.163ZM97.9456 31.3714C97.9456 31.3409 97.9303 31.3105 97.91 31.28C97.8846 31.2393 97.8388 31.219 97.793 31.219C97.7625 31.219 97.7269 31.2241 97.7015 31.2444L96.8728 31.834C96.8321 31.8644 96.8168 31.9051 96.8168 31.9559C96.8168 31.9915 96.8321 32.0118 96.8423 32.0373C96.8677 32.083 96.9185 32.1033 96.9694 32.1033C96.9999 32.1033 97.0202 32.1033 97.0456 32.083L97.8744 31.4883C97.9151 31.468 97.9456 31.4223 97.9456 31.3714ZM94.8746 35.163V33.7145C94.8746 32.9826 94.5034 32.4388 93.7458 32.4388C93.2882 32.4388 92.8459 32.6675 92.6629 33.0792C92.5052 32.7031 92.1697 32.4388 91.6612 32.4388C91.2291 32.4388 90.9037 32.6217 90.6901 32.9521V32.6573C90.6901 32.5506 90.6037 32.4642 90.4969 32.4642C90.385 32.4642 90.3037 32.5506 90.3037 32.6573V35.163C90.3037 35.2697 90.3901 35.351 90.4969 35.351C90.6088 35.351 90.6901 35.2697 90.6901 35.163V33.7348C90.6901 33.2164 91.0308 32.7793 91.585 32.7793C92.1493 32.7793 92.4036 33.191 92.4036 33.7246V35.1681C92.4036 35.2748 92.49 35.3561 92.5968 35.3561C92.7086 35.3561 92.7951 35.2748 92.7951 35.1681V33.6586C92.7951 33.1503 93.1611 32.7793 93.6797 32.7793C94.2848 32.7793 94.4983 33.191 94.4983 33.7246V35.1681C94.4983 35.2748 94.5797 35.3561 94.6915 35.3561C94.7932 35.3561 94.8746 35.2748 94.8746 35.163ZM87.9191 33.9127C87.9191 34.5277 87.4564 35.041 86.831 35.041C86.2107 35.041 85.7379 34.5277 85.7379 33.9127C85.7379 33.2926 86.2057 32.7844 86.831 32.7844C87.4564 32.7793 87.9191 33.2926 87.9191 33.9127ZM88.3055 35.163V33.9127C88.3055 33.0995 87.6496 32.4439 86.831 32.4439C86.0124 32.4439 85.3616 33.0995 85.3616 33.9127C85.3616 34.7259 86.0277 35.3815 86.8209 35.3815C87.3039 35.3815 87.7259 35.1172 87.9191 34.8326V35.163C87.9191 35.2697 88.0005 35.351 88.1072 35.351C88.2191 35.3561 88.3055 35.2748 88.3055 35.163ZM85.265 32.6827C85.265 32.5912 85.1939 32.5201 85.1023 32.5201H84.5329V31.5747C84.5329 31.4629 84.4515 31.3816 84.3448 31.3816C84.2329 31.3816 84.1465 31.4629 84.1465 31.5747V32.5201H83.638C83.5465 32.5201 83.4855 32.5912 83.4855 32.6827C83.4855 32.7742 83.5516 32.8403 83.638 32.8403H84.1465V35.1681C84.1465 35.2748 84.238 35.351 84.3448 35.351C84.4515 35.351 84.5329 35.2748 84.5329 35.1681V32.8454H85.1023C85.1939 32.8454 85.265 32.7742 85.265 32.6827ZM83.0991 34.0652V32.6573C83.0991 32.5506 83.0126 32.4642 82.9059 32.4642C82.794 32.4642 82.7127 32.5506 82.7127 32.6573V34.1007C82.7127 34.6242 82.3008 35.041 81.772 35.041C81.2433 35.041 80.8314 34.6242 80.8314 34.1007V32.6573C80.8314 32.5506 80.7501 32.4642 80.6382 32.4642C80.5264 32.4642 80.445 32.5506 80.445 32.6573V34.0652C80.445 34.7971 81.0246 35.3815 81.767 35.3815C82.5195 35.3815 83.0991 34.7971 83.0991 34.0652ZM80.1603 32.6116C80.1603 32.515 80.0891 32.4388 79.9925 32.4388C79.5146 32.4388 79.1282 32.6319 78.9044 32.9826V32.6522C78.9044 32.5455 78.8129 32.4591 78.7112 32.4591C78.5994 32.4591 78.5231 32.5455 78.5231 32.6522V35.1579C78.5231 35.2646 78.6045 35.346 78.7112 35.346C78.8129 35.346 78.9044 35.2596 78.9044 35.1579V33.7602C78.9044 33.1707 79.423 32.7793 79.9925 32.7793C80.0891 32.7793 80.1603 32.7081 80.1603 32.6116ZM78.1418 31.1376C78.1418 31.0462 78.0706 30.975 77.9841 30.975H77.7859C77.0537 30.975 76.8097 31.3359 76.8097 32.0373V32.5252H76.3775C76.286 32.5252 76.2249 32.5963 76.2249 32.6878C76.2249 32.7793 76.291 32.8454 76.3775 32.8454H76.8097V35.163C76.8097 35.2697 76.8961 35.351 77.0029 35.351C77.1147 35.351 77.1961 35.2697 77.1961 35.163V32.8454H77.7859C77.8774 32.8454 77.9486 32.7742 77.9486 32.6878C77.9486 32.5963 77.8774 32.5252 77.7859 32.5252H77.1961V31.9915C77.1961 31.4833 77.3283 31.3003 77.8062 31.3003H77.9841C78.0706 31.2952 78.1418 31.2241 78.1418 31.1376ZM75.8029 34.5836C75.8029 34.1668 75.4267 33.9534 74.8013 33.7501C74.1708 33.5417 73.9522 33.4654 73.9522 33.1757C73.9522 32.8911 74.2522 32.759 74.6844 32.759C74.9793 32.759 75.2538 32.8352 75.508 32.9877C75.5335 33.0029 75.5691 33.008 75.5945 33.008C75.6453 33.008 75.7013 32.9826 75.7267 32.9318C75.7368 32.9064 75.747 32.8809 75.747 32.8505C75.747 32.7996 75.7216 32.7488 75.6707 32.7183C75.386 32.5353 75.1064 32.4337 74.664 32.4337C74.0641 32.4337 73.5861 32.7081 73.5861 33.1656C73.5861 33.6077 73.9776 33.7907 74.4861 33.9686C75.1623 34.1922 75.4318 34.3244 75.4318 34.5836C75.4318 34.9292 75.025 35.0613 74.6284 35.0613C74.2878 35.0613 73.9929 34.9546 73.7082 34.7615C73.6827 34.7411 73.6522 34.7361 73.6166 34.7361C73.5709 34.7361 73.5251 34.7564 73.4946 34.8021C73.4743 34.8225 73.4692 34.858 73.4692 34.8885C73.4692 34.9343 73.4946 34.9851 73.5353 35.0105C73.8759 35.2646 74.2827 35.3765 74.6488 35.3765C75.3504 35.3815 75.8029 35.0461 75.8029 34.5836ZM72.6964 35.163V32.6573C72.6964 32.5506 72.6201 32.4642 72.5082 32.4642C72.4015 32.4642 72.3099 32.5506 72.3099 32.6573V35.163C72.3099 35.2697 72.4015 35.351 72.5082 35.351C72.6201 35.3561 72.6964 35.2748 72.6964 35.163ZM72.732 31.4883C72.732 31.3613 72.6353 31.2596 72.5082 31.2596C72.3811 31.2596 72.2693 31.3613 72.2693 31.4883C72.2693 31.6154 72.376 31.7221 72.5082 31.7221C72.6353 31.7221 72.732 31.6154 72.732 31.4883ZM70.9219 33.9127C70.9219 34.548 70.4541 35.041 69.8287 35.041C69.2085 35.041 68.7458 34.5785 68.7458 33.9127C68.7458 33.2418 69.2034 32.7844 69.8287 32.7844C70.4541 32.7793 70.9219 33.2723 70.9219 33.9127ZM71.3032 35.163V31.158C71.3032 31.0462 71.2219 30.9648 71.11 30.9648C71.0033 30.9648 70.9219 31.0462 70.9219 31.158V33.0487C70.7236 32.7031 70.2965 32.4388 69.8033 32.4388C68.9898 32.4388 68.3543 33.0639 68.3543 33.9076C68.3543 34.7513 68.9898 35.3765 69.8033 35.3765C70.2914 35.3765 70.7134 35.1477 70.9219 34.7666V35.163C70.9219 35.2697 71.0033 35.351 71.11 35.351C71.2219 35.3561 71.3032 35.2748 71.3032 35.163ZM66.4069 35.0969C66.4069 34.8885 66.3002 34.7666 66.112 34.7666C65.9493 34.7666 65.8222 34.8885 65.8222 35.0461C65.8222 35.2087 65.9493 35.3358 66.112 35.3358C66.1171 35.3358 66.1273 35.3256 66.1273 35.3256C66.1273 35.6255 66.0256 35.8796 65.807 36.1439C65.8019 36.149 65.7968 36.1642 65.7968 36.1846C65.7968 36.2151 65.8121 36.2557 65.8476 36.2761C65.8629 36.2862 65.8832 36.2862 65.8985 36.2862C65.9341 36.2862 65.9544 36.271 65.9748 36.2506C66.29 35.9 66.4069 35.4934 66.4069 35.0969ZM65.3138 34.5836C65.3138 34.1668 64.9375 33.9534 64.3122 33.7501C63.6817 33.5417 63.4631 33.4654 63.4631 33.1757C63.4631 32.8911 63.7681 32.759 64.1952 32.759C64.4901 32.759 64.7647 32.8352 65.0189 32.9877C65.0443 33.0029 65.0748 33.008 65.1053 33.008C65.1562 33.008 65.2121 32.9826 65.2426 32.9318C65.2528 32.9064 65.2629 32.8809 65.2629 32.8505C65.2629 32.7996 65.2375 32.7488 65.1867 32.7183C64.907 32.5353 64.6223 32.4337 64.18 32.4337C63.58 32.4337 63.1071 32.7081 63.1071 33.1656C63.1071 33.6077 63.4986 33.7907 64.0071 33.9686C64.6833 34.1922 64.9528 34.3244 64.9528 34.5836C64.9528 34.9292 64.5511 35.0613 64.1495 35.0613C63.8088 35.0613 63.5139 34.9546 63.2292 34.7615C63.2038 34.7411 63.1732 34.7361 63.1377 34.7361C63.097 34.7361 63.0512 34.7564 63.0156 34.8021C62.9953 34.8225 62.9902 34.858 62.9902 34.8885C62.9902 34.9343 63.0156 34.9851 63.0563 35.0105C63.397 35.2646 63.7986 35.3765 64.1647 35.3765C64.8613 35.3815 65.3138 35.0461 65.3138 34.5836ZM62.1462 33.9127C62.1462 34.5277 61.6835 35.041 61.0632 35.041C60.4378 35.041 59.9701 34.5277 59.9701 33.9127C59.9701 33.2926 60.4378 32.7844 61.0632 32.7844C61.6835 32.7793 62.1462 33.2926 62.1462 33.9127ZM62.5326 35.163V33.9127C62.5326 33.0995 61.8767 32.4439 61.0632 32.4439C60.2497 32.4439 59.5887 33.0944 59.5887 33.9127C59.5887 34.7259 60.2548 35.3815 61.048 35.3815C61.531 35.3815 61.953 35.1172 62.1462 34.8326V35.163C62.1462 35.2697 62.2326 35.351 62.3394 35.351C62.4513 35.3561 62.5326 35.2748 62.5326 35.163ZM62.0445 31.3714C62.0445 31.3409 62.0293 31.3105 62.014 31.28C61.9886 31.2393 61.9428 31.219 61.8971 31.219C61.8665 31.219 61.836 31.2241 61.8055 31.2444L60.9768 31.834C60.9361 31.8644 60.9208 31.9051 60.9208 31.9559C60.9208 31.9915 60.931 32.0118 60.9463 32.0373C60.9717 32.083 61.0225 32.1033 61.0734 32.1033C61.109 32.1033 61.1242 32.1033 61.1497 32.083L61.9784 31.4883C62.0191 31.468 62.0445 31.4223 62.0445 31.3714ZM58.9786 35.163V33.7145C58.9786 32.9826 58.6074 32.4388 57.8448 32.4388C57.3923 32.4388 56.9448 32.6675 56.7669 33.0792C56.6042 32.7031 56.2686 32.4388 55.7652 32.4388C55.3331 32.4388 55.0077 32.6217 54.7941 32.9521V32.6573C54.7941 32.5506 54.7077 32.4642 54.6009 32.4642C54.4941 32.4642 54.4077 32.5506 54.4077 32.6573V35.163C54.4077 35.2697 54.4891 35.351 54.6009 35.351C54.7128 35.351 54.7941 35.2697 54.7941 35.163V33.7348C54.7941 33.2164 55.1348 32.7793 55.689 32.7793C56.2534 32.7793 56.5076 33.191 56.5076 33.7246V35.1681C56.5076 35.2748 56.5889 35.3561 56.7008 35.3561C56.8126 35.3561 56.894 35.2748 56.894 35.1681V33.6586C56.894 33.1503 57.2601 32.7793 57.7787 32.7793C58.3837 32.7793 58.5922 33.191 58.5922 33.7246V35.1681C58.5922 35.2748 58.6735 35.3561 58.7854 35.3561C58.8973 35.3561 58.9786 35.2748 58.9786 35.163ZM52.018 33.9127C52.018 34.5277 51.5554 35.041 50.93 35.041C50.3097 35.041 49.8368 34.5277 49.8368 33.9127C49.8368 33.2926 50.3046 32.7844 50.93 32.7844C51.5554 32.7793 52.018 33.2926 52.018 33.9127ZM52.4044 35.163V33.9127C52.4044 33.0995 51.7486 32.4439 50.93 32.4439C50.1165 32.4439 49.4606 33.0995 49.4606 33.9127C49.4606 34.7259 50.1266 35.3815 50.9198 35.3815C51.4028 35.3815 51.8248 35.1172 52.018 34.8326V35.163C52.018 35.2697 52.0994 35.351 52.2112 35.351C52.3231 35.3561 52.4044 35.2748 52.4044 35.163ZM49.4301 32.6116C49.4301 32.515 49.3589 32.4388 49.2623 32.4388C48.7843 32.4388 48.403 32.6319 48.1742 32.9826V32.6522C48.1742 32.5455 48.0827 32.4591 47.981 32.4591C47.8742 32.4591 47.7929 32.5455 47.7929 32.6522V35.1579C47.7929 35.2646 47.8793 35.346 47.981 35.346C48.0827 35.346 48.1742 35.2596 48.1742 35.1579V33.7602C48.1742 33.1707 48.6928 32.7793 49.2623 32.7793C49.3589 32.7793 49.4301 32.7081 49.4301 32.6116ZM47.2844 32.6116C47.2844 32.515 47.2133 32.4388 47.1167 32.4388C46.6438 32.4388 46.2574 32.6319 46.0286 32.9826V32.6522C46.0286 32.5455 45.9371 32.4591 45.8354 32.4591C45.7235 32.4591 45.6473 32.5455 45.6473 32.6522V35.1579C45.6473 35.2646 45.7286 35.346 45.8354 35.346C45.9371 35.346 46.0286 35.2596 46.0286 35.1579V33.7602C46.0286 33.1707 46.5523 32.7793 47.1167 32.7793C47.2133 32.7793 47.2844 32.7081 47.2844 32.6116ZM44.6304 33.9127C44.6304 34.5277 44.1626 35.041 43.5372 35.041C42.9118 35.041 42.4492 34.5277 42.4492 33.9127C42.4492 33.2926 42.9118 32.7844 43.5372 32.7844C44.1626 32.7793 44.6304 33.2926 44.6304 33.9127ZM45.0117 33.9127C45.0117 33.0995 44.3558 32.4439 43.5423 32.4439C42.7288 32.4439 42.0678 33.0995 42.0678 33.9127C42.0678 34.7259 42.7237 35.3815 43.5423 35.3815C44.3558 35.3815 45.0117 34.7259 45.0117 33.9127ZM41.5543 35.163V33.7297C41.5543 32.9978 41.1221 32.4388 40.3595 32.4388C39.9273 32.4388 39.5104 32.6472 39.307 32.9775V31.1631C39.307 31.0512 39.2155 30.9699 39.1138 30.9699C39.0019 30.9699 38.9206 31.0512 38.9206 31.1631V35.1681C38.9206 35.2748 39.0019 35.3561 39.1138 35.3561C39.2206 35.3561 39.307 35.2748 39.307 35.1681V33.7399C39.307 33.2215 39.729 32.7844 40.2832 32.7844C40.9035 32.7844 41.173 33.1961 41.173 33.7297V35.1732C41.173 35.2799 41.2645 35.3612 41.3713 35.3612C41.478 35.3561 41.5543 35.2748 41.5543 35.163ZM37.7918 33.9127C37.7918 34.5277 37.3292 35.041 36.7089 35.041C36.0835 35.041 35.6157 34.5277 35.6157 33.9127C35.6157 33.2926 36.0835 32.7844 36.7089 32.7844C37.3342 32.7793 37.7918 33.2926 37.7918 33.9127ZM38.1783 35.163V33.9127C38.1783 33.0995 37.5224 32.4439 36.7089 32.4439C35.8903 32.4439 35.2344 33.0995 35.2344 33.9127C35.2344 34.7259 35.9055 35.3815 36.6936 35.3815C37.1766 35.3815 37.5986 35.1172 37.7918 34.8326V35.163C37.7918 35.2697 37.8783 35.351 37.985 35.351C38.0969 35.3561 38.1783 35.2748 38.1783 35.163Z" fill="black"/>
</svg>
