<svg width="323" height="67" viewBox="0 0 323 67" fill="none" xmlns="http://www.w3.org/2000/svg">
<path d="M49.8881 34.1842H49.3791L34.0223 1.61566C33.5981 0.595241 32.58 0 31.477 0H2.79983C1.27265 0 0 1.27553 0 2.80616V63.9465C0 65.4771 1.27265 66.7526 2.79983 66.7526H23.4169C24.944 66.7526 26.2167 65.4771 26.2167 63.9465V32.3134H26.7258L43.1855 65.222C43.6946 66.1574 44.6278 66.7526 45.6459 66.7526H73.305C74.8322 66.7526 76.1049 65.4771 76.1049 63.9465V2.80616C76.1049 1.27553 74.8322 0 73.305 0H52.688C51.1608 0 49.8881 1.27553 49.8881 2.80616V34.1842Z" fill="black"/>
<path d="M113.096 37.4975H149.919C150.852 37.4975 151.531 36.7322 151.531 35.8819V30.9498C151.531 30.0144 150.767 29.3341 149.919 29.3341H113.096V19.8952H151.615C153.143 19.8952 154.415 18.6197 154.415 17.0891V2.88818C154.415 1.35755 153.143 0.0820312 151.615 0.0820312H87.4736C85.9464 0.0820312 84.6738 1.35755 84.6738 2.88818V64.1135C84.6738 65.6442 85.9464 66.8347 87.3888 66.8347H151.955C153.482 66.8347 154.755 65.5591 154.755 64.0285V50.678C154.755 49.1474 153.482 47.8718 151.955 47.8718H113.012V37.4975H113.096Z" fill="black"/>
<path d="M239.599 26.446C239.599 3.23134 226.363 0 208.801 0H166.294C164.767 0 163.494 1.27553 163.494 2.80616V63.9465C163.494 65.4771 164.767 66.7526 166.294 66.7526H189.117C190.644 66.7526 191.917 65.4771 191.917 63.9465V52.1266H196.753C198.28 59.4396 204.134 65.137 211.601 66.4125C212.449 66.5826 213.382 66.7526 214.4 66.7526H236.884C238.411 66.7526 239.684 65.4771 239.684 63.9465V52.1266C239.684 50.5959 238.411 49.3204 236.884 49.3204H227.721C235.357 46.1741 239.599 39.6264 239.599 26.446ZM191.832 19.6431H204.643C207.783 19.6431 210.413 22.1092 210.667 25.2555C211.261 32.5685 208.97 35.0345 202.692 35.2046H191.832V19.6431Z" fill="black"/>
<path d="M322.999 32.9937C322.999 8.75863 311.291 0 288.638 0H251.052C249.525 0 248.252 1.27553 248.252 2.80616V63.6063C248.252 65.3921 249.694 66.7526 251.391 66.7526H288.638C311.376 66.7526 322.999 57.994 322.999 33.759C322.999 33.5889 322.999 33.5039 322.999 33.4188C322.999 33.2488 322.999 33.1637 322.999 32.9937ZM283.802 46.2592H276.166V38.7761V20.4935H283.802C292.286 20.4935 294.492 25.1704 294.577 33.3338C294.492 41.6673 292.286 46.2592 283.802 46.2592Z" fill="black"/>
</svg>
