<svg width="62" height="48" viewBox="0 0 62 48" fill="none" xmlns="http://www.w3.org/2000/svg">
<path d="M7.81115 15.7292C7.68326 16.1768 7.56958 16.6031 7.47011 17.0151C7.34223 17.5338 7.22855 18.0027 7.12198 18.429C7.01541 18.8411 6.94436 19.175 6.90173 19.4166C6.81647 19.85 6.53228 20.1199 6.08467 20.2052C5.69391 20.2834 5.28183 20.2478 4.84844 20.1128C4.42215 19.9779 4.03849 19.7363 3.70456 19.4024C3.34932 19.0471 3.1717 18.6066 3.1717 18.088C3.1717 17.6617 3.27827 16.9938 3.49852 16.0418C3.71166 15.1111 4.01717 14.0027 4.41504 12.7594C4.80581 11.5231 5.28183 10.159 5.8218 8.7025C6.29071 7.45205 6.80937 6.20161 7.37775 4.95826C7.56248 4.55329 7.94614 4.2762 8.39374 4.21936C9.39552 4.10568 10.2694 4.1341 11.0083 4.30462C11.4559 4.41119 11.6904 4.89432 11.5057 5.3064C11.0296 6.37212 10.5891 7.43074 10.1984 8.46094C9.87865 9.29931 9.58025 10.1235 9.28895 10.9263C9.26053 11.0045 9.33868 11.0826 9.41683 11.0471C9.8005 10.8695 10.1771 10.6634 10.5465 10.429C11.1504 10.0382 11.7046 9.5764 12.1877 9.05064C12.6708 8.52488 13.0616 7.92808 13.36 7.28864C13.6513 6.64921 13.8005 5.95294 13.8005 5.22114C13.8005 4.2833 13.5376 3.58703 13.0261 3.16074C12.5074 2.72735 11.7756 2.5071 10.852 2.5071C9.86444 2.5071 8.96923 2.74156 8.1806 3.20337C7.37065 3.67229 6.66727 4.25488 6.09888 4.92984C5.52339 5.6048 5.06869 6.32949 4.74897 7.0826C4.41504 7.82861 4.25163 8.47515 4.25163 9.02222C4.25163 9.41298 4.04559 9.69007 3.67614 9.81085C3.34932 9.91743 2.98697 9.90322 2.61752 9.76112C2.26228 9.62613 1.92835 9.37036 1.63706 8.9867C1.33865 8.60303 1.18945 8.07728 1.18945 7.43784C1.18945 6.87656 1.4026 6.21581 1.83599 5.41297C2.26228 4.63144 2.89461 3.87833 3.71166 3.16074C4.52872 2.44315 5.55181 1.82504 6.76674 1.31349C7.98877 0.801941 9.40263 0.539062 10.9657 0.539062C11.8538 0.539062 12.749 0.645635 13.6158 0.851675C14.4897 1.05771 15.2854 1.37743 15.9746 1.78951C16.6709 2.2087 17.2463 2.74156 17.6797 3.35968C18.1202 3.99201 18.3405 4.73091 18.3405 5.56217C18.3405 6.45738 18.1416 7.29575 17.7579 8.04886C17.3742 8.80197 16.8485 9.48403 16.1877 10.0879C15.5341 10.6847 14.7668 11.2105 13.8929 11.651C13.1753 12.0133 12.408 12.326 11.6193 12.5746C11.5696 12.5888 11.5483 12.6173 11.5554 12.667C11.5696 13.0649 11.598 13.4485 11.6406 13.8251C11.6833 14.2585 11.7472 14.6777 11.8183 15.0755C11.8893 15.4663 11.9746 15.85 12.074 16.2123C12.1522 16.4894 12.2375 16.7665 12.3227 17.0222C12.3795 17.1857 12.4435 17.3491 12.5003 17.4983C12.6211 17.8038 12.7632 18.0951 12.9053 18.3651C13.0474 18.6279 13.2037 18.8837 13.3671 19.1182C13.5234 19.3455 13.6939 19.5587 13.8716 19.7505C14.0421 19.9352 14.2268 20.1128 14.4115 20.2691C14.5963 20.4184 14.7881 20.5533 14.987 20.6741C15.1788 20.7878 15.3778 20.8873 15.5838 20.9725C15.7828 21.0507 15.9959 21.1217 16.209 21.1644C16.4222 21.2141 16.6353 21.2425 16.8556 21.2567C17.0758 21.2709 17.3032 21.2638 17.5305 21.2496C17.765 21.2283 17.9995 21.1928 18.2339 21.1359C18.4755 21.0791 18.717 21.0009 18.9657 20.9086C19.2144 20.8162 19.4702 20.7025 19.7188 20.5676C19.8112 20.5178 19.9107 20.4681 20.003 20.4112C20.3156 20.2336 20.7135 20.3189 20.9195 20.6102C21.1256 20.9015 21.083 21.3065 20.813 21.5409C20.678 21.6546 20.5501 21.7683 20.4151 21.8819C20.0954 22.1448 19.7757 22.3864 19.4631 22.6066C19.1646 22.8127 18.8591 23.0045 18.5607 23.175C18.4115 23.2603 18.2552 23.3455 18.0918 23.4237C17.7863 23.58 17.4737 23.715 17.1682 23.8287C16.8627 23.9423 16.5572 24.0347 16.2588 24.1129C15.9604 24.1839 15.662 24.2407 15.3636 24.2692C15.1575 24.2905 14.9444 24.3047 14.7383 24.3047C14.6531 24.3047 14.5749 24.3047 14.4897 24.2976C14.2055 24.2834 13.9213 24.255 13.6513 24.1981C13.5163 24.1697 13.3813 24.1413 13.2463 24.0987C13.1184 24.0631 12.9835 24.0205 12.8556 23.9708C12.5998 23.8784 12.3511 23.7647 12.1096 23.6297C11.8751 23.5018 11.6406 23.3455 11.4204 23.1821C11.2428 23.0471 11.0652 22.8979 10.9017 22.7416C10.7028 22.5498 10.5039 22.3438 10.3191 22.1164C10.1344 21.8962 9.96391 21.6546 9.8005 21.4059C9.63708 21.1573 9.48078 20.8873 9.33868 20.6173C9.19659 20.3402 9.06159 20.0489 8.94081 19.7505C8.82003 19.4521 8.70635 19.1395 8.60689 18.8127C8.50742 18.4929 8.41506 18.1519 8.3369 17.8038C8.25875 17.4556 8.1877 17.0933 8.13086 16.7238C8.08113 16.397 8.0385 16.0631 8.00298 15.7221C7.98877 15.6439 7.83957 15.6297 7.81115 15.7292Z" fill="black"/>
<path d="M61.1914 2.6572C61.1914 4.1279 60.0049 5.31441 58.5342 5.31441C57.0635 5.31441 55.877 4.1279 55.877 2.6572C55.877 1.18651 57.0635 0 58.5342 0C59.9978 0 61.1914 1.18651 61.1914 2.6572Z" fill="black"/>
<path d="M60.5944 13.3713C60.4665 13.1724 60.2179 13.0374 59.9621 13.0374C59.7205 13.0374 59.5003 13.151 59.3653 13.35C59.209 13.5773 59.01 13.8473 58.7898 14.1528C58.5411 14.4868 58.2711 14.8136 57.994 15.112C57.717 15.4104 57.447 15.6662 57.1912 15.8793C56.9283 16.0995 56.7578 16.1422 56.6583 16.1422C56.5873 16.1422 56.4665 16.1422 56.4381 15.8082C56.4097 15.4601 56.4594 15.0054 56.5944 14.4512C56.7294 13.8899 56.9283 13.2647 57.177 12.5969C57.4328 11.9148 57.6885 11.2612 57.9372 10.6644C58.2001 10.0391 58.4203 9.52048 58.6193 9.07288C58.8182 8.63238 58.939 8.34108 58.9887 8.21319C59.145 7.85085 59.0882 7.4885 58.8182 7.17589C58.5695 6.88459 58.2427 6.68566 57.8377 6.57198C57.4399 6.46541 57.0136 6.4583 56.566 6.55067C56.0828 6.65013 55.7063 6.93433 55.4363 7.37483C55.1947 7.76559 54.8892 8.3766 54.5127 9.20076C54.1361 10.0249 53.7738 10.9343 53.4328 11.9077C53.2267 12.4974 53.0349 13.1013 52.8644 13.7123C52.5802 14.7212 51.9905 15.6164 51.1805 16.2843C50.8892 16.5187 50.5837 16.7461 50.264 16.9521C50.1219 17.0445 49.9798 17.1297 49.8377 17.2079C49.7951 17.2292 49.7453 17.1795 49.7738 17.1369C50.0224 16.8171 50.2569 16.4619 50.4985 16.0924C50.9816 15.3251 51.4221 14.4015 51.8129 13.3571C52.2249 12.2487 52.4807 11.2398 52.5731 10.3517C52.6725 9.45654 52.637 8.67501 52.4736 8.02847C52.3031 7.36062 52.0047 6.83486 51.5855 6.47251C51.1521 6.08885 50.6121 5.89702 49.994 5.89702C49.2622 5.89702 48.5802 6.08885 47.9834 6.47251C47.5784 6.73539 47.1947 7.02669 46.8537 7.34641C46.8253 7.37483 46.8039 7.36772 46.7826 7.3393C46.7045 7.21852 46.605 7.10484 46.4771 6.99827C46.1858 6.75671 45.8377 6.6004 45.4398 6.52225C45.042 6.44409 44.637 6.47251 44.2391 6.6004C43.8128 6.7425 43.5002 7.02669 43.3013 7.45298C42.9176 8.27714 42.5126 9.24339 42.1006 10.3162C41.6885 11.389 41.2835 12.5116 40.8998 13.6484C40.8572 13.7763 40.8146 13.9042 40.772 14.0249C40.4522 14.9983 39.8412 15.8509 39.0313 16.469C38.8181 16.6324 38.5979 16.7887 38.3705 16.9379C38.2284 17.0303 38.0863 17.1155 37.9442 17.1937C37.9016 17.215 37.8519 17.1653 37.8803 17.1226C38.129 16.8029 38.3634 16.4477 38.605 16.0782C39.0881 15.3109 39.5286 14.3944 39.9194 13.3429C40.3315 12.2345 40.5872 11.2256 40.6796 10.3375C40.7791 9.44233 40.7435 8.6608 40.5801 8.01426C40.4096 7.34641 40.1112 6.82065 39.692 6.4583C39.2586 6.07464 38.7187 5.88281 38.1005 5.88281C37.3616 5.88281 36.6867 6.07464 36.0899 6.4583C35.6849 6.72118 35.3012 7.01248 34.9602 7.3322C34.9318 7.36062 34.9105 7.35351 34.8892 7.32509C34.811 7.20431 34.7115 7.09063 34.5837 6.98406C34.2924 6.7425 33.9442 6.58619 33.5464 6.50804C33.1485 6.42988 32.7435 6.4583 32.3456 6.58619C31.9194 6.72829 31.6067 7.01248 31.4078 7.43877C31.0241 8.26293 30.6192 9.22918 30.2071 10.302C29.8163 11.3109 29.4398 12.3553 29.0845 13.4139C28.8145 14.2097 28.4096 14.8562 27.8057 15.4459C27.6494 15.5951 27.5002 15.7372 27.351 15.858C27.0881 16.0782 26.9176 16.1209 26.8181 16.1209C26.747 16.1209 26.6263 16.1209 26.5978 15.7869C26.5694 15.4388 26.6192 14.9841 26.7541 14.437C26.8891 13.8757 27.0881 13.2505 27.3367 12.5827C27.5925 11.9077 27.8483 11.2541 28.097 10.6501C28.3527 10.0391 28.5801 9.49917 28.779 9.05867C28.978 8.60396 29.1058 8.32687 29.1485 8.19898C29.3048 7.83664 29.2479 7.47429 28.978 7.16168C28.7293 6.87038 28.3954 6.67145 27.9762 6.55777C27.5712 6.4512 27.1378 6.44409 26.7044 6.54356C26.2355 6.65013 25.8589 6.92722 25.589 7.36772C25.5321 7.45298 25.4753 7.55245 25.4184 7.65902C25.3971 7.69454 25.3403 7.68744 25.3332 7.64481C25.2835 7.40324 25.1982 7.17589 25.0845 6.96275C24.914 6.64303 24.6653 6.38725 24.3385 6.18832C24.0046 5.98938 23.5854 5.88992 23.0881 5.88992C21.9158 5.88992 20.7222 6.42988 19.5428 7.50271C18.3918 8.55423 17.4326 10.231 16.7008 12.4832C16.3598 13.5702 16.1538 14.5791 16.104 15.4743C16.0472 16.3837 16.1253 17.1653 16.3243 17.7976C16.5303 18.4512 16.8571 18.9699 17.2976 19.3322C17.7523 19.7088 18.2994 19.9006 18.9175 19.9006C19.3793 19.9006 19.8127 19.8225 20.2177 19.6662C20.6085 19.517 20.9779 19.318 21.2976 19.0836C21.5463 18.906 21.7808 18.6999 21.9939 18.4797C22.1431 18.3234 22.4131 18.3873 22.4699 18.5933C22.541 18.8278 22.6334 19.0409 22.7612 19.2186C23.0667 19.6662 23.557 19.8935 24.2035 19.8935C24.9282 19.8935 25.6529 19.6235 26.3705 19.0907C26.7044 18.842 27.0312 18.572 27.3438 18.2807C27.4149 18.2168 27.5286 18.2878 27.5002 18.3802C27.3154 18.9912 27.152 19.5596 27.0028 20.0925C26.7541 20.9877 26.5481 21.7621 26.3918 22.3873C26.1858 23.2257 26.1644 23.453 26.1644 23.5596C26.1644 24.0783 26.3279 24.5117 26.6405 24.8669C26.946 25.2079 27.3012 25.4495 27.692 25.5845C27.9478 25.6768 28.2035 25.7195 28.4451 25.7195C28.5801 25.7195 28.708 25.7053 28.8359 25.6768C29.1201 25.6129 29.4753 25.4282 29.5819 24.8953V24.8882C29.6245 24.604 29.7026 24.2275 29.8163 23.7585C29.9371 23.2683 30.0792 22.7141 30.2426 22.1102C30.406 21.5063 30.5908 20.8314 30.8181 20.0569C30.9176 19.6946 31.0312 19.318 31.1449 18.9273C31.1662 18.8491 31.2799 18.8349 31.3154 18.906C31.3652 18.9983 31.422 19.0836 31.486 19.1688C31.8483 19.652 32.4167 19.8935 33.1911 19.8935C33.3474 19.9006 33.5037 19.9006 33.6529 19.9006C34.7826 19.9006 35.8483 19.7088 36.8146 19.3251C37.7382 18.9557 38.5837 18.5152 39.3368 17.9965C39.4078 17.9468 39.5073 18.0178 39.4789 18.1031C39.2657 18.8136 39.0668 19.4814 38.8963 20.0925C38.6405 20.9948 38.4416 21.7692 38.2853 22.3873C38.0792 23.2328 38.0579 23.4601 38.0579 23.5596C38.0579 24.0712 38.2213 24.5117 38.5339 24.8669C38.8394 25.2079 39.1947 25.4495 39.5855 25.5845C39.8412 25.6768 40.097 25.7195 40.3386 25.7195C40.4736 25.7195 40.6014 25.7053 40.7293 25.6768C41.0135 25.6129 41.3688 25.4282 41.4753 24.8953V24.8882C41.518 24.604 41.5961 24.2275 41.7098 23.7585C41.8306 23.2683 41.9727 22.7141 42.1361 22.1102C42.2995 21.5063 42.4913 20.8314 42.7116 20.0569C42.811 19.6946 42.9247 19.318 43.0384 18.9273C43.0597 18.8491 43.1734 18.8349 43.2089 18.906C43.2586 18.9983 43.3155 19.0836 43.3794 19.1688C43.7347 19.652 44.3102 19.8935 45.0846 19.8935C45.2409 19.9006 45.3972 19.9006 45.5464 19.9006C46.6761 19.9006 47.7418 19.7088 48.708 19.3251C49.788 18.8988 50.7684 18.3589 51.6139 17.7194C51.756 17.6129 51.8981 17.4992 52.0331 17.3926C52.097 17.3429 52.1894 17.3855 52.1894 17.4708C52.1894 17.5063 52.1894 17.5418 52.1894 17.5773C52.1894 18.2523 52.3315 18.8065 52.6086 19.2186C52.9141 19.6662 53.4043 19.8935 54.0509 19.8935C54.7685 19.8935 55.5074 19.6235 56.232 19.0907C56.9212 18.5862 57.5749 17.9894 58.1717 17.3145C58.7614 16.6466 59.2729 15.9859 59.7063 15.3464C60.1397 14.6999 60.4381 14.2523 60.6015 13.9894C60.7152 13.8047 60.7223 13.5702 60.5944 13.3713ZM23.827 9.91125C23.7772 10.3873 23.6778 10.9272 23.5286 11.524C23.3794 12.1137 23.1804 12.739 22.9318 13.3784C22.6831 14.0178 22.4202 14.6146 22.1431 15.1546C21.8731 15.6875 21.6032 16.1422 21.3332 16.5045C21.0703 16.8598 20.8287 17.1226 20.6014 17.2861C20.438 17.4068 20.3456 17.421 20.3172 17.421C20.303 17.421 20.2888 17.421 20.2746 17.4139C20.2461 17.3997 20.1396 17.3287 20.0898 17.009C20.0401 16.7106 20.033 16.3269 20.0756 15.8722C20.1182 15.4033 20.2106 14.8704 20.3598 14.2807C20.5019 13.691 20.7079 13.0658 20.9566 12.4264C21.2124 11.7798 21.4753 11.183 21.7452 10.6501C22.0152 10.1173 22.2852 9.66258 22.5552 9.28602C22.8181 8.92368 23.0596 8.6608 23.2799 8.49028C23.4433 8.3695 23.5357 8.35529 23.5712 8.35529C23.5854 8.35529 23.5996 8.35529 23.6067 8.3624C23.6351 8.3766 23.7488 8.44765 23.8128 8.77447C23.8767 9.06577 23.8838 9.44943 23.827 9.91125ZM36.7009 9.93967C36.6156 10.4086 36.4878 10.9486 36.3101 11.5383C36.1325 12.1351 35.9052 12.7603 35.6352 13.3926C35.3439 14.032 35.0384 14.636 34.7329 15.1759C34.4345 15.7088 34.129 16.1706 33.8448 16.54C33.5606 16.9024 33.3048 17.1724 33.0703 17.3358C32.8927 17.4637 32.8003 17.4779 32.7648 17.4779C32.7506 17.4779 32.7364 17.4779 32.7222 17.4708C32.6938 17.4566 32.5943 17.3926 32.5517 17.0729C32.5091 16.7816 32.5304 16.3979 32.6156 15.929C32.7009 15.453 32.8288 14.9059 33.0064 14.3162C33.184 13.7265 33.4114 13.1013 33.6813 12.4548C33.9513 11.8153 34.2497 11.2185 34.5623 10.6857C34.875 10.1457 35.1805 9.691 35.4647 9.33576C35.7488 8.98051 36.0046 8.71764 36.2391 8.54712C36.4167 8.41923 36.5091 8.40502 36.5446 8.40502C36.5588 8.40502 36.573 8.40502 36.5872 8.41213C36.6156 8.42634 36.7151 8.49028 36.7577 8.81C36.8004 9.1084 36.7791 9.48496 36.7009 9.93967ZM48.6015 9.93967C48.5162 10.4086 48.3883 10.9486 48.2107 11.5383C48.0331 12.1351 47.8057 12.7603 47.5357 13.3926C47.2445 14.032 46.9389 14.636 46.6334 15.1759C46.335 15.7088 46.0295 16.1706 45.7453 16.54C45.4611 16.9024 45.2054 17.1724 44.9709 17.3358C44.7933 17.4637 44.7009 17.4779 44.6654 17.4779C44.6512 17.4779 44.637 17.4779 44.6228 17.4708C44.5944 17.4566 44.4949 17.3926 44.4523 17.0729C44.4096 16.7816 44.4309 16.3979 44.5162 15.929C44.6015 15.453 44.7293 14.9059 44.907 14.3162C45.0846 13.7265 45.3119 13.1013 45.5819 12.4548C45.8519 11.8153 46.1503 11.2185 46.4629 10.6857C46.7755 10.1457 47.081 9.691 47.3652 9.33576C47.6423 8.98051 47.9052 8.71764 48.1397 8.55423C48.3173 8.42634 48.4096 8.41213 48.4452 8.41213C48.4594 8.41213 48.4736 8.41213 48.4878 8.41923C48.5162 8.43344 48.6157 8.49739 48.6583 8.8171C48.7009 9.1084 48.6796 9.48496 48.6015 9.93967Z" fill="black"/>
<path d="M60.6079 34.3021C57.432 37.0871 54.6114 37.2577 51.2224 34.7639C49.6664 33.62 48.2739 32.2559 46.7108 31.1191C45.503 30.2381 44.2241 29.3642 42.8458 28.8171C40.4586 27.8722 38.0429 28.1919 35.8618 29.5205C34.384 30.4228 33.034 31.5383 31.6628 32.604C31.471 32.7532 31.3289 32.8314 31.1797 32.8243C31.0305 32.8314 30.8884 32.7461 30.6966 32.604C29.3253 31.5383 27.9754 30.4157 26.4976 29.5205C24.3235 28.199 21.9008 27.8793 19.5136 28.8171C18.1352 29.3642 16.8564 30.2381 15.6486 31.1191C14.0855 32.2559 12.6929 33.62 11.137 34.7639C7.7551 37.2577 4.93449 37.08 1.75153 34.3021C1.48865 34.0747 1.22577 33.8402 0.962891 33.6129C1.46023 36.2346 2.47622 38.5792 3.98244 40.7106C5.90785 43.4317 8.42295 45.3785 11.5917 46.4513C18.9878 48.9522 28.3307 45.4637 31.1939 38.8918C34.05 45.4637 43.3929 48.9522 50.789 46.4513C53.9506 45.3785 56.4729 43.4317 58.3983 40.7106C59.9045 38.5792 60.9276 36.2346 61.3965 33.6129C61.1336 33.8402 60.8707 34.0747 60.6079 34.3021Z" fill="black"/>
</svg>
