<svg width="69" height="56" viewBox="0 0 69 56" fill="none" xmlns="http://www.w3.org/2000/svg">
<path d="M58.5013 8.97566C53.3967 3.10305 47.1962 0 40.5919 0C34.0597 0 27.7005 3.19006 22.6824 8.97566C21.1972 10.6722 19.8561 12.4992 18.6737 14.4423C17.4913 12.5137 16.1646 10.6867 14.6794 8.97566C12.4011 6.35111 9.83433 4.30658 7.10898 2.79855V0.623514H0V7.77214H7.10898V6.42362C8.95472 7.64164 10.7139 9.14966 12.3434 11.0347C14.0882 13.0502 15.6167 15.2543 16.9145 17.6178C13.7421 24.0124 12.0982 31.4076 12.0982 39.4842C12.0982 49.5184 14.665 56 18.6449 56C22.6247 56 25.1915 49.5184 25.1915 39.4842C25.1915 31.4221 23.5476 24.0124 20.3897 17.6178C21.6874 15.2543 23.2159 13.0502 24.9752 11.0347C29.4597 5.85811 34.8383 3.11756 40.5486 3.11756C46.23 3.11756 51.623 5.85811 56.122 11.0347C62.5244 18.4008 65.9131 28.232 65.9131 39.4842C65.9131 48.6919 61.4429 52.8824 57.29 52.8824C53.1371 52.8824 48.667 48.6919 48.667 39.4842C48.667 35.9316 49.0275 32.4951 49.7052 29.218L53.9879 30.7841L53.2092 14.7178L42.3511 26.5355L46.7635 28.145C45.9849 31.7556 45.5667 35.5401 45.5667 39.4697C45.5667 44.4433 46.778 48.6484 49.0707 51.6354C51.176 54.405 54.1753 55.9855 57.29 55.9855C62.9282 55.9855 68.999 50.8234 68.999 39.4697C69.0711 27.4635 65.4084 16.9218 58.5013 8.97566ZM22.1489 39.4842C22.1489 49.5909 19.5821 52.8824 18.6881 52.8824C17.7941 52.8824 15.2274 49.5764 15.2274 39.4842C15.2274 32.8431 16.4098 26.695 18.6881 21.2574C20.9665 26.6805 22.1489 32.8286 22.1489 39.4842Z" fill="black"/>
</svg>
