<svg width="95" height="45" viewBox="0 0 95 45" fill="none" xmlns="http://www.w3.org/2000/svg">
<path d="M38.0175 16.175C38.1732 16.2399 38.3418 16.2788 38.517 16.2983C38.6921 16.3178 38.8413 16.3242 38.9711 16.3242C39.1203 16.3242 39.276 16.3113 39.4252 16.2853C39.5744 16.2594 39.7041 16.2399 39.8209 16.2204V14.2354C39.6976 14.216 39.5679 14.1965 39.4252 14.1835C39.2825 14.1705 39.1592 14.1641 39.0489 14.1641C38.5624 14.1641 38.1732 14.2549 37.8813 14.43C37.5958 14.6052 37.4531 14.8841 37.4531 15.2798C37.4531 15.5458 37.5115 15.7404 37.6218 15.8831C37.7321 16.0064 37.8618 16.1102 38.0175 16.175Z" fill="black"/>
<path d="M32.0823 11.9046C31.8358 11.6062 31.492 11.457 31.0574 11.457C30.5514 11.457 30.1751 11.5933 29.9157 11.8787C29.6562 12.1576 29.5005 12.5533 29.4551 13.0593H32.491C32.4586 12.5858 32.3288 12.203 32.0823 11.9046Z" fill="black"/>
<path d="M42.3115 1.90901C39.6583 0.572683 35.8051 1.88955 35.8051 1.88955C20.2038 6.97537 20.4438 6.84563 16.5775 8.16898C16.4867 8.19493 16.2791 8.2598 16.1948 8.26628C16.0067 8.27926 15.851 8.11059 15.851 7.91598C15.851 7.81868 15.8964 7.72137 15.9743 7.66299C16.0326 7.61109 16.0845 7.57866 16.0845 7.57866C16.0845 7.57866 18.8934 5.81419 21.5531 4.23136C22.1434 3.87457 22.6234 3.60861 23.1619 3.29074C23.5965 3.03126 24.9977 2.31769 24.9977 1.50033C24.9977 0.981365 24.5955 0.559709 24.0895 0.520787C24.0636 0.520787 23.9079 0.507812 23.869 0.507812H23.1359H13.1848H9.90241C7.59303 0.507812 5.88046 1.18895 4.73225 1.87657C2.20881 3.50481 0.535156 6.34613 0.535156 9.57666C0.535156 11.9639 1.44334 14.137 2.94184 15.7653V15.7718L30.8814 42.2128C32.5291 43.7892 34.7542 44.7557 37.2127 44.7557C42.2791 44.7557 46.3789 40.6495 46.3789 35.5896L46.4048 8.23385C46.3984 5.61309 44.6988 3.3102 42.3115 1.90901ZM35.7661 14.1435C35.9737 13.8192 36.2397 13.5597 36.5576 13.3651C36.8819 13.1705 37.2452 13.0278 37.6474 12.9434C38.0496 12.8591 38.4518 12.8137 38.8475 12.8137C39.1394 12.8137 39.4572 12.8331 39.8075 12.8591V12.6775C39.8075 12.4374 39.7686 12.2428 39.6843 12.0936C39.6064 11.9444 39.4962 11.8212 39.3535 11.7368C39.2172 11.6525 39.0421 11.5941 38.8345 11.5617C38.6399 11.5357 38.4128 11.5228 38.1598 11.5228C37.6214 11.5228 37.0441 11.6266 36.4278 11.8406C36.2851 11.5811 36.1813 11.3346 36.1164 11.1011C36.0516 10.8741 36.0126 10.5951 36.0126 10.2773C36.4538 10.1281 36.8884 10.0178 37.336 9.94642C37.7771 9.87506 38.1858 9.84263 38.5685 9.84263C39.6065 9.84263 40.4238 10.0891 41.0076 10.5951C41.598 11.0946 41.8899 11.899 41.8899 12.9953V17.5038C41.5396 17.6141 41.1114 17.7179 40.6119 17.8217C40.1124 17.9254 39.5416 17.9709 38.9123 17.9709C38.3999 17.9709 37.9328 17.9254 37.5111 17.8346C37.083 17.7438 36.7197 17.5946 36.4148 17.3805C36.11 17.173 35.8764 16.9005 35.7078 16.5697C35.5456 16.2388 35.4612 15.8301 35.4612 15.3501C35.4548 14.8701 35.5586 14.4679 35.7661 14.1435ZM13.7427 17.5297C13.7427 17.5946 13.7362 17.666 13.7103 17.7503C13.5546 17.8022 13.3535 17.8346 13.1329 17.8541C12.9124 17.8736 12.6983 17.88 12.5102 17.88C11.7382 17.88 11.122 17.666 10.6549 17.2443C10.1878 16.8227 9.9543 16.1285 9.9543 15.1685V6.8067C10.3176 6.74832 10.6679 6.71589 11.0247 6.71589C11.362 6.71589 11.7123 6.74832 12.0756 6.8067V14.6949C12.0756 15.0063 12.095 15.2528 12.1275 15.4474C12.1599 15.6355 12.2183 15.7847 12.2896 15.8885C12.3675 15.9923 12.4648 16.0702 12.5815 16.1091C12.7048 16.148 12.854 16.1675 13.0356 16.1675C13.1135 16.1675 13.1978 16.161 13.2951 16.1545C13.3924 16.1415 13.4832 16.1285 13.5741 16.1091C13.6843 16.5178 13.7427 16.92 13.7427 17.3092C13.7427 17.387 13.7427 17.4584 13.7427 17.5297ZM17.2717 17.7892C16.9149 17.8476 16.5581 17.88 16.2208 17.88C15.8899 17.88 15.5461 17.8541 15.1828 17.7892V11.646H14.1774C14.1449 11.5163 14.119 11.3801 14.106 11.2373C14.0865 11.0946 14.0865 10.9519 14.0865 10.8222C14.0865 10.5497 14.1125 10.2837 14.1774 10.0243H17.2717V17.7892ZM26.1264 17.7892C25.7632 17.8476 25.4064 17.88 25.0561 17.88C24.7058 17.88 24.349 17.8541 23.9922 17.7892V13.3975C23.9922 12.8591 23.9079 12.4374 23.7457 12.152C23.577 11.8601 23.2916 11.7109 22.8829 11.7109C22.7143 11.7109 22.5391 11.7368 22.3575 11.7887C22.1758 11.8406 22.0137 11.9379 21.871 12.0806C21.7282 12.2234 21.6115 12.4309 21.5207 12.6904C21.4298 12.9499 21.3844 13.2937 21.3844 13.7089V17.7827C21.0212 17.8411 20.6709 17.8736 20.3141 17.8736C19.9638 17.8736 19.607 17.8476 19.2502 17.7827V10.0243C19.3864 9.99832 19.5291 9.97237 19.6719 9.95939C19.8146 9.94642 19.9638 9.93345 20.1389 9.93345C20.3076 9.93345 20.4568 9.93993 20.593 9.95939C20.7227 9.97237 20.859 9.99832 21.0017 10.0243C21.0276 10.0762 21.0601 10.1475 21.0795 10.2383C21.1055 10.3356 21.1249 10.4329 21.1509 10.5432C21.1704 10.647 21.1898 10.7508 21.2028 10.8546C21.2158 10.9519 21.2287 11.0362 21.2417 11.1076C21.339 10.9584 21.4623 10.8092 21.5985 10.66C21.7412 10.5108 21.9034 10.3746 22.085 10.2578C22.2731 10.1345 22.4807 10.0372 22.7143 9.96588C22.9413 9.88804 23.2008 9.8556 23.4797 9.8556C24.362 9.8556 25.0236 10.0956 25.4712 10.5757C25.9188 11.0557 26.1394 11.8147 26.1394 12.8461V17.7892H26.1264ZM29.5451 17.666C29.0261 17.4649 28.6045 17.1924 28.2801 16.8356C27.9558 16.4788 27.7158 16.0572 27.5601 15.5642C27.4044 15.0776 27.3265 14.5392 27.3265 13.9619C27.3265 13.391 27.4044 12.8526 27.5665 12.3531C27.7222 11.8536 27.9623 11.419 28.2801 11.0492C28.598 10.6795 28.9872 10.3875 29.4543 10.167C29.9213 9.95291 30.4598 9.84911 31.0825 9.84911C31.6274 9.84911 32.1075 9.93993 32.5226 10.1281C32.9443 10.3227 33.3011 10.5821 33.5995 10.913C33.8914 11.2438 34.1184 11.633 34.2676 12.0936C34.4168 12.5477 34.4947 13.0407 34.4947 13.5597C34.4947 13.7478 34.4882 13.9359 34.4752 14.1176C34.4622 14.3057 34.4428 14.4549 34.4168 14.5652H29.4283C29.4672 15.1685 29.6813 15.6031 30.0641 15.8691C30.4403 16.1415 30.9463 16.2777 31.5626 16.2777C31.8999 16.2777 32.2502 16.2453 32.607 16.1804C32.9637 16.1156 33.3011 16.0248 33.6189 15.908C33.7292 16.1091 33.8265 16.3491 33.9044 16.628C33.9822 16.907 34.0276 17.2054 34.0406 17.5297C33.2621 17.8281 32.3799 17.9838 31.3939 17.9838C30.6803 17.9709 30.0641 17.8671 29.5451 17.666ZM41.8964 37.1205C41.8964 39.5467 39.84 39.6375 39.84 39.6375H38.1858H36.1878V27.163H34.6893H32.6978V24.4773C33.4827 24.4773 34.3001 24.2179 35.1499 23.6989C35.9867 23.1799 36.5705 22.3236 36.8949 21.143H37.323H37.9717H38.8864H39.9632H40.2552V21.1625C40.6703 21.2144 41.0271 21.3895 41.332 21.6814C41.7082 22.0382 41.8964 22.4858 41.8964 23.0242V37.1205Z" fill="black"/>
<path d="M56.0959 21.2016C56.3878 21.1562 56.6732 21.1367 56.9392 21.1367C57.2246 21.1367 57.5101 21.1562 57.7825 21.2016L59.5924 25.7295L61.4607 21.2016C61.6877 21.1562 61.9407 21.1367 62.2196 21.1367C62.4986 21.1367 62.7646 21.1562 63.024 21.2016L63.3938 29.1028C63.1149 29.1482 62.8554 29.1676 62.6024 29.1676C62.3559 29.1676 62.1094 29.1482 61.8694 29.1028L61.6747 23.7445L60.0724 27.4551C59.9687 27.468 59.8649 27.481 59.7546 27.494C59.6443 27.507 59.534 27.5135 59.4237 27.5135C59.3329 27.5135 59.2356 27.5135 59.1383 27.5005C59.0475 27.494 58.9437 27.481 58.8464 27.4551L57.3544 23.6667L57.1987 29.1028C56.9652 29.1482 56.7381 29.1676 56.5176 29.1676C56.284 29.1676 56.044 29.1482 55.791 29.1028L56.0959 21.2016Z" fill="black"/>
<path d="M66.0863 26.7415C66.1187 27.1826 66.2679 27.5005 66.5468 27.7016C66.8258 27.8962 67.189 28 67.6496 28C67.9026 28 68.1491 27.974 68.4086 27.9286C68.6681 27.8832 68.9146 27.8118 69.1481 27.7275C69.2325 27.8702 69.2973 28.0519 69.3557 28.253C69.4141 28.4541 69.4465 28.6811 69.453 28.9146C68.8822 29.1352 68.2399 29.2455 67.5199 29.2455C66.9944 29.2455 66.5403 29.1741 66.1641 29.0249C65.7878 28.8822 65.483 28.6746 65.2429 28.4151C65.0029 28.1556 64.8278 27.8443 64.7175 27.4875C64.6007 27.1307 64.5488 26.7415 64.5488 26.3133C64.5488 25.8982 64.6072 25.5089 64.724 25.1392C64.8407 24.7759 65.0159 24.4516 65.2494 24.1791C65.4765 23.9067 65.7684 23.6926 66.1057 23.5369C66.443 23.3812 66.8387 23.2969 67.2993 23.2969C67.695 23.2969 68.0453 23.3682 68.3502 23.5045C68.6616 23.6407 68.9211 23.8353 69.1351 24.0753C69.3492 24.3153 69.5114 24.6073 69.6217 24.9381C69.732 25.2754 69.7838 25.6322 69.7838 26.0084C69.7838 26.1512 69.7774 26.2874 69.7644 26.4236C69.7579 26.5598 69.7449 26.6636 69.7255 26.748H66.0863V26.7415ZM68.3178 25.6517C68.3048 25.3014 68.2075 25.0159 68.0259 24.8019C67.8507 24.5878 67.5977 24.4775 67.2734 24.4775C66.9101 24.4775 66.6312 24.5813 66.443 24.7824C66.2549 24.99 66.1381 25.2754 66.0992 25.6517H68.3178Z" fill="black"/>
<path d="M71.1723 24.6069H70.4588L70.4004 24.3864L72.4568 21.7656H72.7098V23.4263H74.0396C74.0656 23.5366 74.0785 23.6339 74.085 23.7247C74.0915 23.8155 74.0915 23.9063 74.0915 24.0036C74.0915 24.1074 74.0915 24.2047 74.085 24.302C74.0785 24.3994 74.0591 24.5031 74.0396 24.6199H72.7098V26.8514C72.7098 27.0785 72.7292 27.2601 72.7682 27.4028C72.8006 27.5391 72.859 27.6493 72.9238 27.7337C72.9952 27.8115 73.0795 27.8699 73.1833 27.8959C73.2871 27.9283 73.4104 27.9413 73.5466 27.9413C73.6569 27.9413 73.7672 27.9283 73.8709 27.9153C73.9747 27.8959 74.0656 27.8764 74.1499 27.8634C74.2018 27.9996 74.2407 28.1488 74.2602 28.298C74.2796 28.4473 74.2926 28.5835 74.2926 28.7002C74.2926 28.7846 74.2926 28.8494 74.2861 28.9013C74.2796 28.9532 74.2796 29.0116 74.2667 29.057C73.9293 29.1414 73.579 29.1803 73.2222 29.1803C72.5606 29.1803 72.0481 29.0246 71.6978 28.7132C71.341 28.4018 71.1723 27.8959 71.1723 27.1953V24.6069Z" fill="black"/>
<path d="M75.22 23.4282C75.3303 23.4022 75.4341 23.3892 75.5314 23.3763C75.6287 23.3633 75.739 23.3633 75.8557 23.3633C75.966 23.3633 76.0698 23.3698 76.1801 23.3827C76.2839 23.3957 76.3942 23.4152 76.4915 23.4346C76.5109 23.4671 76.5369 23.5255 76.5498 23.5968C76.5693 23.6682 76.5823 23.7395 76.6017 23.8174C76.6147 23.8952 76.6277 23.9731 76.6407 24.0509C76.6471 24.1287 76.6601 24.1936 76.6666 24.2455C76.8288 24.0185 77.0234 23.8174 77.2569 23.6357C77.4905 23.4541 77.7824 23.3698 78.1327 23.3698C78.204 23.3698 78.2884 23.3763 78.3857 23.3827C78.4765 23.3892 78.5478 23.4022 78.5933 23.4152C78.6062 23.4865 78.6192 23.5709 78.6257 23.6682C78.6322 23.7655 78.6387 23.8628 78.6387 23.9666C78.6387 24.0898 78.6322 24.2261 78.6257 24.3753C78.6127 24.5245 78.5933 24.6607 78.5608 24.7969C78.483 24.7774 78.3922 24.7775 78.2949 24.7775H78.1132C77.9835 24.7775 77.8472 24.7904 77.6916 24.8164C77.5424 24.8423 77.3932 24.9137 77.2504 25.0175C77.1142 25.1277 76.9974 25.2964 76.9066 25.5105C76.8158 25.731 76.7704 26.0424 76.7704 26.4381V29.1367C76.6342 29.1627 76.5044 29.1756 76.3747 29.1821C76.245 29.1886 76.1152 29.1951 75.992 29.1951C75.8687 29.1951 75.7455 29.1886 75.6092 29.1821C75.4795 29.1756 75.3497 29.1627 75.207 29.1367V23.4282H75.22Z" fill="black"/>
<path d="M81.8763 29.2337C81.4157 29.2337 81.0135 29.1559 80.6762 29.0067C80.3324 28.8575 80.0534 28.6434 79.8329 28.3775C79.6123 28.1115 79.4436 27.8001 79.3269 27.4368C79.2166 27.0801 79.1582 26.6908 79.1582 26.2692C79.1582 25.854 79.2101 25.4583 79.3269 25.095C79.4436 24.7318 79.6123 24.4139 79.8329 24.1479C80.0599 23.882 80.3388 23.6679 80.6762 23.5187C81.02 23.363 81.4157 23.2852 81.8763 23.2852C82.3368 23.2852 82.739 23.363 83.0828 23.5187C83.4267 23.6744 83.7121 23.882 83.9391 24.1479C84.1662 24.4139 84.3348 24.7318 84.4451 25.095C84.5554 25.4648 84.6138 25.854 84.6138 26.2692C84.6138 26.6908 84.5554 27.0736 84.4451 27.4368C84.3348 27.7936 84.1662 28.105 83.9391 28.3775C83.7121 28.6434 83.4267 28.8575 83.0828 29.0067C82.739 29.1624 82.3368 29.2337 81.8763 29.2337ZM81.8763 28.0466C82.2849 28.0466 82.5833 27.8974 82.7585 27.5925C82.9336 27.2876 83.0245 26.853 83.0245 26.2757C83.0245 25.7048 82.9336 25.2702 82.7585 24.9653C82.5769 24.6604 82.2849 24.5112 81.8763 24.5112C81.4741 24.5112 81.1822 24.6669 81.0005 24.9653C80.8254 25.2702 80.7345 25.7113 80.7345 26.2757C80.7345 26.8465 80.8254 27.2876 81.0005 27.5925C81.1822 27.8974 81.4741 28.0466 81.8763 28.0466Z" fill="black"/>
<path d="M59.3918 31.3787C59.528 31.3527 59.6642 31.3398 59.794 31.3333C59.9237 31.3268 60.0535 31.3203 60.1832 31.3203C60.3129 31.3203 60.4492 31.3268 60.5789 31.3333C60.7151 31.3398 60.8514 31.3527 60.9876 31.3787V39.455C60.6308 39.5653 60.274 39.6432 59.9108 39.695C59.5475 39.7534 59.0999 39.7794 58.5809 39.7794C58.1787 39.7794 57.796 39.7275 57.4327 39.6172C57.0694 39.5069 56.7451 39.3318 56.4661 39.0982C56.1872 38.8647 55.9666 38.5533 55.8045 38.1771C55.6423 37.8008 55.5645 37.3403 55.5645 36.7954C55.5645 36.3672 55.6358 35.9585 55.772 35.5823C55.9148 35.1995 56.1094 34.8687 56.3753 34.5963C56.6348 34.3173 56.9462 34.0968 57.3159 33.9346C57.6857 33.7724 58.0944 33.6881 58.5485 33.6881C58.6847 33.6881 58.8209 33.6946 58.9766 33.7075C59.1193 33.714 59.262 33.74 59.3983 33.7789V31.3787H59.3918ZM59.3918 35.0114C59.2426 34.9725 59.1258 34.953 59.0285 34.9401C58.9377 34.9271 58.8144 34.9206 58.6717 34.9206C58.4252 34.9206 58.2047 34.9725 58.023 35.0698C57.8349 35.1736 57.6857 35.3098 57.5689 35.4785C57.4457 35.6472 57.3549 35.8482 57.303 36.0818C57.2446 36.3088 57.2186 36.5488 57.2186 36.8018C57.2186 37.1132 57.2576 37.3727 57.3354 37.5868C57.4068 37.8008 57.5106 37.976 57.6468 38.0992C57.783 38.229 57.9322 38.3198 58.1139 38.3782C58.2955 38.4301 58.4901 38.4625 58.7042 38.4625C58.8274 38.4625 58.9507 38.456 59.0545 38.4431C59.1583 38.4301 59.2815 38.4106 59.4048 38.3717V35.0114H59.3918Z" fill="black"/>
<path d="M63.8088 37.2189C63.8412 37.673 63.9969 38.0039 64.2823 38.205C64.5677 38.4061 64.944 38.5099 65.4111 38.5099C65.6705 38.5099 65.93 38.4839 66.196 38.432C66.462 38.3866 66.7214 38.3153 66.9615 38.2244C67.0458 38.3736 67.1171 38.5553 67.1755 38.7693C67.2339 38.9834 67.2663 39.204 67.2793 39.4505C66.689 39.6775 66.0273 39.7878 65.2943 39.7878C64.7494 39.7878 64.2823 39.7164 63.8996 39.5608C63.5104 39.4116 63.1925 39.1975 62.946 38.9315C62.6995 38.6656 62.5178 38.3477 62.4076 37.9779C62.2908 37.6082 62.2324 37.206 62.2324 36.7649C62.2324 36.3367 62.2973 35.928 62.4141 35.5518C62.5373 35.1755 62.7125 34.8447 62.9525 34.5658C63.1925 34.2868 63.4844 34.0663 63.8347 33.9041C64.185 33.7419 64.5937 33.6641 65.0608 33.6641C65.4694 33.6641 65.8327 33.7354 66.1506 33.8781C66.462 34.0208 66.7344 34.2155 66.955 34.4685C67.1755 34.715 67.3442 35.0134 67.4545 35.3572C67.5712 35.701 67.6231 36.0707 67.6231 36.46C67.6231 36.6027 67.6166 36.7454 67.6037 36.8816C67.5907 37.0178 67.5777 37.1281 67.5647 37.2125H63.8088V37.2189ZM66.1052 36.0967C66.0922 35.7334 65.9884 35.4415 65.8068 35.2209C65.6186 34.9939 65.3656 34.8836 65.0348 34.8836C64.6586 34.8836 64.3731 34.9939 64.172 35.2015C63.9774 35.4091 63.8607 35.714 63.8217 36.0967H66.1052Z" fill="black"/>
<path d="M71.373 31.5141C71.652 31.4687 71.918 31.4492 72.1774 31.4492C72.4369 31.4492 72.7159 31.4687 73.0013 31.5141V38.2217H75.8167C75.8426 38.3514 75.8556 38.4747 75.8621 38.5914C75.8686 38.7082 75.875 38.8185 75.875 38.9223C75.875 39.0455 75.8686 39.1623 75.8621 39.279C75.8556 39.3958 75.8426 39.5191 75.8167 39.6423H71.373V31.5141Z" fill="black"/>
<path d="M77.1461 35.024H76.3871C76.3677 34.9267 76.3482 34.823 76.3352 34.7127C76.3288 34.6024 76.3223 34.4986 76.3223 34.4013C76.3223 34.1937 76.3482 33.9991 76.3871 33.798H78.716V39.6493C78.45 39.6947 78.184 39.7206 77.9246 39.7206C77.6781 39.7206 77.4121 39.6947 77.1461 39.6493V35.024ZM76.9061 32.812C76.8607 32.5525 76.8412 32.306 76.8412 32.053C76.8412 31.813 76.8607 31.56 76.9061 31.294C77.0358 31.2681 77.1721 31.2551 77.3213 31.2421C77.4705 31.2291 77.6002 31.2227 77.7235 31.2227C77.8467 31.2227 77.9894 31.2291 78.1386 31.2421C78.2943 31.2551 78.4305 31.2681 78.5538 31.294C78.5797 31.4238 78.5927 31.547 78.5992 31.6703C78.6057 31.8 78.6122 31.9233 78.6122 32.0465C78.6122 32.1698 78.6122 32.293 78.5992 32.4228C78.5927 32.546 78.5797 32.6757 78.5538 32.8055C78.4241 32.8314 78.2878 32.8444 78.1386 32.8509C77.9959 32.8574 77.8597 32.8639 77.7299 32.8639C77.6132 32.8639 77.477 32.8574 77.3213 32.8509C77.1786 32.8509 77.0358 32.8379 76.9061 32.812Z" fill="black"/>
<path d="M80.2988 33.7977C80.4026 33.7782 80.5064 33.7588 80.6167 33.7458C80.7205 33.7328 80.8372 33.7264 80.967 33.7264C81.0967 33.7264 81.207 33.7328 81.3108 33.7458C81.4081 33.7588 81.5119 33.7718 81.6157 33.7977C81.6416 33.8366 81.6546 33.8885 81.6806 33.9599C81.7 34.0312 81.713 34.1091 81.7325 34.1869C81.7519 34.2648 81.7584 34.3426 81.7779 34.4205C81.7908 34.4918 81.7973 34.5567 81.8038 34.6151C81.8687 34.5048 81.9465 34.388 82.0438 34.2777C82.1411 34.161 82.2579 34.0637 82.3941 33.9729C82.5304 33.882 82.686 33.8107 82.8482 33.7523C83.0169 33.6939 83.2115 33.668 83.4191 33.668C84.3273 33.668 84.9176 34.0183 85.1706 34.7059C85.3263 34.427 85.5339 34.1869 85.8128 33.9793C86.0853 33.7718 86.4356 33.668 86.8572 33.668C87.5254 33.668 88.0119 33.8496 88.3233 34.2194C88.6346 34.5891 88.7903 35.16 88.7903 35.9319V39.6555C88.5179 39.7009 88.2519 39.7268 87.9859 39.7268C87.72 39.7268 87.454 39.7009 87.1816 39.6555V36.3536C87.1816 35.9514 87.1297 35.6335 87.0259 35.4195C86.9221 35.1989 86.7145 35.0886 86.4096 35.0886C86.2863 35.0886 86.1566 35.1081 86.0334 35.1405C85.9101 35.1794 85.7933 35.2508 85.696 35.3546C85.5922 35.4519 85.5079 35.5946 85.4495 35.7827C85.3846 35.9709 85.3522 36.2044 85.3522 36.4963V39.6555C85.0798 39.7009 84.8138 39.7268 84.5478 39.7268C84.2883 39.7268 84.0159 39.7009 83.7434 39.6555V36.3536C83.7434 35.9514 83.6915 35.6335 83.5877 35.4195C83.4904 35.1989 83.2829 35.0886 82.9715 35.0886C82.8417 35.0886 82.712 35.1081 82.5887 35.1405C82.459 35.1794 82.3487 35.2573 82.2449 35.3611C82.1411 35.4714 82.0633 35.627 81.9984 35.8217C81.9336 36.0163 81.9076 36.2693 81.9076 36.5871V39.6555C81.6352 39.7009 81.3692 39.7268 81.1032 39.7268C80.8372 39.7268 80.5713 39.7009 80.2988 39.6555V33.7977Z" fill="black"/>
<path d="M93.1503 35.8022C93.1503 35.6206 93.1179 35.4778 93.0595 35.3611C92.9946 35.2508 92.9168 35.16 92.813 35.0951C92.7092 35.0302 92.573 34.9848 92.4238 34.9654C92.2681 34.9394 92.0994 34.9329 91.9113 34.9329C91.5026 34.9329 91.068 35.0108 90.6139 35.173C90.5101 34.9783 90.4258 34.7902 90.3739 34.6216C90.322 34.4464 90.296 34.2388 90.296 33.9988C90.6269 33.882 90.9577 33.8042 91.2885 33.7458C91.6194 33.6939 91.9308 33.668 92.2162 33.668C93.0011 33.668 93.6109 33.8561 94.052 34.2323C94.4931 34.6086 94.7137 35.2119 94.7137 36.0422V39.4349C94.4477 39.5193 94.1299 39.5971 93.7536 39.6749C93.3774 39.7528 92.9492 39.7852 92.4757 39.7852C92.0929 39.7852 91.7426 39.7528 91.4183 39.6814C91.1004 39.6166 90.8215 39.4998 90.5944 39.3441C90.3674 39.1884 90.1857 38.9808 90.0625 38.7343C89.9392 38.4878 89.8809 38.1829 89.8809 37.8197C89.8809 37.4564 89.9587 37.1515 90.1079 36.905C90.2636 36.6585 90.4647 36.4639 90.7112 36.3212C90.9577 36.172 91.2302 36.0682 91.5286 36.0033C91.8335 35.9384 92.1319 35.906 92.4303 35.906C92.6508 35.906 92.8908 35.919 93.1568 35.9384V35.8022H93.1503ZM93.1503 36.9634C93.0595 36.9504 92.9622 36.9374 92.8519 36.9245C92.7481 36.9115 92.6508 36.905 92.573 36.905C92.2032 36.905 91.9113 36.9699 91.6972 37.1061C91.4832 37.2423 91.3729 37.4499 91.3729 37.7418C91.3729 37.9364 91.4118 38.0921 91.5026 38.1959C91.5805 38.2997 91.6778 38.3775 91.801 38.423C91.9178 38.4748 92.041 38.5008 92.1708 38.5138C92.307 38.5267 92.4173 38.5332 92.5146 38.5332C92.6314 38.5332 92.7416 38.5203 92.8519 38.5008C92.9687 38.4813 93.066 38.4684 93.1503 38.4489V36.9634Z" fill="black"/>
</svg>
