<svg width="108" height="40" viewBox="0 0 108 40" fill="none" xmlns="http://www.w3.org/2000/svg">
<path d="M75.7227 32.7754H76.8768L78.1937 31.3828H76.9378L75.7227 32.7754Z" fill="black"/>
<path d="M107.536 24.8085C89.8779 26.9483 32.4393 29.9673 14.3031 29.9673C-3.83298 29.9673 0.249806 24.9254 2.23273 24.8085C3.875 24.712 107.536 24.8085 107.536 24.8085Z" fill="black"/>
<path d="M11.9591 8.03235L10.2812 22.7208H14.8725L16.2758 13.0285C16.347 12.4135 16.4893 11.9713 16.6978 11.6968C16.9113 11.4275 17.2316 11.2902 17.6689 11.2902C18.1011 11.2902 18.396 11.4275 18.5434 11.6968C18.696 11.9662 18.7315 12.4135 18.6655 13.0285L17.5621 22.7208H22.1534L23.7143 11.646C23.8058 10.8481 23.7804 10.1975 23.638 9.68925C23.4956 9.181 23.2719 8.77439 22.9618 8.46944C22.6516 8.15941 22.2703 7.95612 21.8127 7.8443C21.3754 7.71724 20.8823 7.65625 20.3382 7.65625C18.5994 7.65625 17.3333 8.37796 16.5351 9.82648H16.4792L16.5198 8.03235H11.9591Z" fill="black"/>
<path d="M24.7864 8.03277L24.4102 11.3161H26.0372L25.1474 19.1329C25.0559 19.9461 25.0508 20.6069 25.1372 21.1151C25.244 21.603 25.4474 21.9741 25.7423 22.2282C26.0575 22.4823 26.4744 22.645 26.988 22.7161C27.5066 22.772 28.137 22.7974 28.8794 22.7974C29.2963 22.7974 29.7335 22.7771 30.1911 22.7415C30.6436 22.7212 30.8013 22.7161 31.2538 22.7161L31.9198 19.4582H31.1572C30.7606 19.4582 30.4708 19.3769 30.2877 19.2143C30.125 19.0313 29.7742 18.7365 29.82 18.3197L30.9182 11.3161H32.8452L33.2214 8.03277H31.1267L31.4572 5.35938H27.2269L26.4185 8.03277H24.7864Z" fill="black"/>
<path d="M55.7104 0.0078125H60.6016L57.6018 22.7266H52.9648L55.7104 0.0078125Z" fill="black"/>
<path fill-rule="evenodd" clip-rule="evenodd" d="M64.5672 15.3422C64.7045 14.4222 64.8367 13.6649 64.9587 13.0754C65.0858 12.4807 65.2282 12.0182 65.3858 11.6777C65.5434 11.3372 65.7163 11.1084 65.8993 10.9916C66.0976 10.8696 66.3366 10.8187 66.6061 10.8238C66.8755 10.834 67.0942 10.9051 67.2569 11.0373C67.4196 11.1694 67.5213 11.4083 67.5568 11.7539C67.6128 12.0995 67.6179 12.5722 67.5619 13.1669C67.5111 13.7615 67.4145 14.5188 67.2772 15.4387C67.1399 16.3587 67.0077 17.116 66.8857 17.7055C66.7637 18.2799 66.6213 18.7373 66.4637 19.0778C66.3213 19.4183 66.1535 19.647 65.9502 19.7639C65.7519 19.8859 65.5129 19.9368 65.2434 19.9317C64.974 19.9215 64.7553 19.8503 64.5926 19.7182C64.4503 19.5861 64.3486 19.3472 64.2926 19.0016C64.2367 18.656 64.2316 18.1935 64.2825 17.614C64.3384 17.0194 64.4299 16.2621 64.5672 15.3422ZM72.1735 15.393C72.2955 14.3257 72.3464 13.3295 72.326 12.4045C72.326 11.4642 72.1582 10.6408 71.8176 9.93438C71.482 9.22791 70.9176 8.67901 70.1346 8.2775C69.3466 7.86073 68.2432 7.65234 66.8094 7.65234C65.4316 7.65234 64.3028 7.87597 63.4181 8.32831C62.5538 8.7654 61.8623 9.33973 61.3437 10.0665C60.8251 10.7882 60.4437 11.6116 60.1946 12.5366C59.9607 13.4616 59.7929 14.4019 59.6811 15.3574C59.5591 16.4247 59.498 17.4311 59.498 18.3713C59.5184 19.2964 59.6963 20.1096 60.0319 20.816C60.3675 21.5022 60.9318 22.046 61.7199 22.4424C62.508 22.8236 63.6215 23.0117 65.0502 23.0117C66.4281 23.0117 67.5467 22.8033 68.4059 22.3865C69.2906 21.9545 69.9872 21.3802 70.5007 20.6788C71.0193 19.9571 71.3905 19.1337 71.6244 18.2087C71.8837 17.2938 72.0616 16.3536 72.1735 15.393Z" fill="black"/>
<path d="M73.2884 8.03277L72.9121 11.3161H74.5442L73.6544 19.1329C73.5629 19.9461 73.5578 20.6069 73.6443 21.1151C73.751 21.603 73.9544 21.9741 74.2493 22.2282C74.5645 22.4823 74.9815 22.645 75.495 22.7161C76.0136 22.772 76.6441 22.7974 77.3864 22.7974C77.8033 22.7974 78.2406 22.7771 78.6982 22.7415C79.1507 22.7212 79.3083 22.7161 79.7608 22.7161L80.4269 19.4582H79.6642C79.2676 19.4582 78.9778 19.3769 78.7948 19.2143C78.6321 19.0313 78.2813 18.7365 78.327 18.3197L79.4253 11.3161H81.3522L81.7285 8.03277H79.6439L79.9744 5.35938H75.7441L74.9154 8.03277H73.2884Z" fill="black"/>
<path fill-rule="evenodd" clip-rule="evenodd" d="M34.4985 8.03353H39.0593L38.9576 10.3664C39.3847 9.47696 39.8931 8.81116 40.5439 8.35882C41.1947 7.88615 42.5268 7.65234 43.2488 7.65234L47.0418 7.66759L47.4943 7.65234C48.3434 7.65234 49.1162 7.7235 49.8077 7.87089C50.5195 7.99795 51.1042 8.24191 51.572 8.60277C52.0601 8.94838 52.4008 9.42614 52.6041 10.0411C52.8279 10.6409 52.8838 11.4185 52.7719 12.374L51.9533 19.5403C51.8771 20.2265 51.6025 22.2137 51.5618 22.7169H47.3265C47.2655 22.4628 47.2299 22.1985 47.2248 21.9291L47.1587 21.06C46.813 21.7105 46.3249 22.1985 45.6893 22.5237C45.0741 22.849 44.3826 23.0117 43.6251 23.0117C42.8827 23.0117 42.2624 22.91 41.7591 22.7118C41.271 22.5288 40.8897 22.2493 40.6049 21.8681C40.3202 21.4869 40.1372 21.0346 40.0558 20.5111C39.9694 19.9876 39.9643 19.4082 40.0355 18.7729C40.1117 18.0867 40.2439 17.487 40.4321 16.9787C40.6354 16.4705 40.91 16.0385 41.2608 15.6776C41.6116 15.2964 42.0642 14.9813 42.6184 14.7272C43.1726 14.4578 43.8539 14.2291 44.6521 14.0512L46.635 13.5887C47.174 13.4616 47.5655 13.2837 47.8095 13.0449C47.9672 12.9026 48.1502 12.6688 48.1858 12.2774C48.2621 11.449 47.9621 11.2355 47.1333 11.2355C46.996 11.2355 46.452 11.3422 45.7453 11.4541C41.8201 12.069 39.3491 12.562 38.744 15.9114L37.4272 22.7118H32.8359L34.4985 8.03353ZM45.8368 19.8148C45.4758 19.8148 45.2012 19.6725 45.0182 19.3827C44.8352 19.093 44.7691 18.7017 44.825 18.2138C44.8809 17.7259 44.9979 17.3345 45.1758 17.0448C45.3538 16.7399 45.6436 16.4908 46.0452 16.3129C46.4266 16.1503 47.6113 15.8352 47.779 15.6369L47.6316 17.4006C47.5401 18.2138 47.3519 18.8237 47.0723 19.2201C46.7927 19.6166 46.3808 19.8148 45.8368 19.8148Z" fill="black"/>
<path d="M5.78233 8.03125L4.27734 22.7197H8.86857L10.6074 8.03125H5.78233Z" fill="black"/>
<path fill-rule="evenodd" clip-rule="evenodd" d="M50.1337 39.1141L50.1896 38.55H50.1642C50.0218 38.6821 49.8896 38.7888 49.7727 38.8752C49.6558 38.9616 49.5439 39.0226 49.427 39.0734C49.3202 39.1192 49.2134 39.1497 49.1066 39.1649C48.9948 39.1802 48.8779 39.1903 48.7457 39.1903C48.4609 39.1903 48.2169 39.1192 48.0186 38.9718C47.8203 38.8193 47.6576 38.616 47.5356 38.3721C47.4237 38.1179 47.3474 37.8231 47.3118 37.4928C47.2763 37.1624 47.2763 36.8117 47.3118 36.4407C47.3525 36.024 47.4186 35.6326 47.5101 35.2616C47.6118 34.8855 47.744 34.5551 47.9118 34.2654C48.0898 33.9706 48.2982 33.7419 48.5474 33.5742C48.8016 33.4065 49.1066 33.3201 49.4524 33.3201C49.7066 33.3201 49.9202 33.3607 50.0879 33.4471C50.2659 33.5335 50.4235 33.6606 50.571 33.8283L50.8659 30.8906H52.6454L51.8217 39.1192H50.1337V39.1141ZM50.4896 34.6161C50.4439 34.5399 50.3727 34.4789 50.2761 34.4331C50.1896 34.3772 50.0778 34.3518 49.9507 34.3518C49.8032 34.3518 49.6812 34.4128 49.5846 34.5348C49.4981 34.6517 49.4219 34.7991 49.366 34.9871C49.3151 35.165 49.2795 35.3581 49.249 35.5665C49.2287 35.7647 49.2083 35.9528 49.1931 36.1205C49.1626 36.4204 49.1372 36.6948 49.1219 36.9388C49.1066 37.1777 49.1066 37.381 49.1168 37.5487C49.1321 37.7113 49.1677 37.8384 49.2287 37.9299C49.2897 38.0214 49.3761 38.0671 49.4931 38.0671C49.6253 38.0671 49.7524 38.0264 49.8744 37.9502C49.9964 37.8638 50.1032 37.7571 50.1845 37.6249L50.4896 34.6161Z" fill="black"/>
<path fill-rule="evenodd" clip-rule="evenodd" d="M54.5663 36.6268C54.5561 36.7488 54.5459 36.8911 54.5459 37.0537C54.551 37.2164 54.5764 37.3638 54.6171 37.5061C54.6578 37.6433 54.7239 37.7653 54.8256 37.8669C54.9222 37.9584 55.0594 38.0042 55.2272 38.0042C55.4509 38.0042 55.6492 37.933 55.8272 37.7856C56.0052 37.6382 56.1323 37.4451 56.2085 37.2062L57.3627 37.6687C57.3322 37.7399 57.2661 37.8619 57.1644 38.0397C57.0678 38.2075 56.9254 38.3853 56.7322 38.5734C56.5441 38.7513 56.3051 38.9088 56.0153 39.0461C55.7306 39.1833 55.395 39.2545 54.9984 39.2545C54.5764 39.2545 54.2103 39.1731 53.9104 39.0105C53.6206 38.8428 53.3867 38.6191 53.2138 38.3396C53.0409 38.055 52.924 37.7246 52.863 37.3587C52.802 36.9877 52.7867 36.6014 52.8274 36.2049C52.8681 35.7983 52.9596 35.4121 53.0918 35.0512C53.2392 34.6802 53.4223 34.36 53.6511 34.0805C53.8849 33.8009 54.1646 33.5824 54.4798 33.4197C54.8052 33.2571 55.1713 33.1758 55.5781 33.1758C56.0102 33.1758 56.3611 33.2622 56.6407 33.4401C56.9153 33.618 57.1288 33.8518 57.2763 34.1465C57.4339 34.4312 57.5305 34.7615 57.5711 35.1275C57.622 35.4883 57.6271 35.8593 57.5864 36.2354L57.5457 36.6268H54.5663ZM56.0051 35.5188C56.0204 35.3816 56.0255 35.2393 56.0255 35.1021C56.0255 34.9648 56.0052 34.8428 55.9696 34.731C55.9441 34.6141 55.8882 34.5226 55.8018 34.4515C55.7255 34.3803 55.6086 34.3498 55.456 34.3498C55.334 34.3498 55.2272 34.3854 55.1357 34.4515C55.0442 34.5226 54.9679 34.6141 54.9018 34.731C54.8357 34.8378 54.7849 34.9597 54.7493 35.1021C54.7188 35.2393 54.6985 35.3816 54.6832 35.5188H56.0051Z" fill="black"/>
<path fill-rule="evenodd" clip-rule="evenodd" d="M64.2627 33.2157C64.217 33.6833 64.1 34.0848 63.9119 34.4202C63.7339 34.7506 63.5001 35.02 63.2204 35.2284C62.9357 35.4367 62.6205 35.5892 62.2646 35.6807C61.9086 35.7722 61.5324 35.8179 61.1409 35.8179C61.0087 35.8179 60.8816 35.8128 60.7596 35.8078C60.6426 35.8027 60.5206 35.7874 60.3935 35.7722L60.0579 39.1114H58.0801L58.9038 30.8828H61.8425C62.2137 30.8828 62.5544 30.9286 62.8696 31.02C63.1848 31.1115 63.4492 31.2538 63.6729 31.447C63.8916 31.6299 64.0593 31.8688 64.1661 32.1636C64.2678 32.4584 64.3034 32.8091 64.2627 33.2157ZM62.1985 33.358C62.2188 33.1649 62.1934 33.0022 62.1324 32.8701C62.0764 32.7379 61.99 32.6363 61.8731 32.56C61.7663 32.4838 61.6392 32.4279 61.4968 32.3974C61.3544 32.3567 61.2121 32.3415 61.0748 32.3415H60.7291L60.5257 34.3643H60.8714C61.0087 34.3643 61.1561 34.3491 61.3036 34.3186C61.451 34.2881 61.5883 34.2322 61.7103 34.1559C61.8425 34.0797 61.9493 33.973 62.0307 33.8459C62.1273 33.7087 62.1832 33.546 62.1985 33.358Z" fill="black"/>
<path fill-rule="evenodd" clip-rule="evenodd" d="M65.8584 36.6268C65.8483 36.7488 65.8381 36.8911 65.8381 37.0537C65.8432 37.2164 65.8686 37.3638 65.9093 37.5061C65.95 37.6433 66.0211 37.7653 66.1178 37.8669C66.2144 37.9584 66.3516 38.0042 66.5194 38.0042C66.7431 38.0042 66.9414 37.933 67.1194 37.7856C67.2973 37.6382 67.4244 37.4451 67.5007 37.2062L68.6549 37.6687C68.6244 37.7399 68.5583 37.8619 68.4566 38.0397C68.36 38.2075 68.2176 38.3853 68.0193 38.5734C67.8312 38.7513 67.5922 38.9088 67.3024 39.0461C67.0177 39.1833 66.6821 39.2545 66.2855 39.2545C65.8635 39.2545 65.4975 39.1731 65.1975 39.0105C64.9077 38.8428 64.6738 38.6191 64.5009 38.3396C64.328 38.055 64.2111 37.7246 64.1501 37.3587C64.0891 36.9877 64.0738 36.6014 64.1145 36.2049C64.1552 35.7983 64.2416 35.4121 64.3789 35.0512C64.5212 34.6802 64.7094 34.36 64.9382 34.0805C65.1721 33.8009 65.4517 33.5824 65.7669 33.4197C66.0923 33.2571 66.4584 33.1758 66.8652 33.1758C67.2973 33.1758 67.6482 33.2622 67.9227 33.4401C68.1973 33.618 68.4108 33.8518 68.5583 34.1465C68.7159 34.4312 68.8125 34.7615 68.8532 35.1275C68.904 35.4883 68.9091 35.8593 68.8684 36.2354L68.8277 36.6268H65.8584ZM67.3024 35.5188C67.3177 35.3816 67.3228 35.2393 67.3228 35.1021C67.3228 34.9648 67.3024 34.8428 67.2668 34.731C67.2414 34.6141 67.1855 34.5226 67.099 34.4515C67.0228 34.3803 66.9058 34.3498 66.7533 34.3498C66.6313 34.3498 66.5245 34.3854 66.433 34.4515C66.3415 34.5226 66.2601 34.6141 66.1991 34.731C66.133 34.8378 66.0822 34.9597 66.0466 35.1021C66.0161 35.2393 65.9957 35.3816 65.9805 35.5188H67.3024Z" fill="black"/>
<path fill-rule="evenodd" clip-rule="evenodd" d="M73.115 35.0653C72.998 35.0195 72.8811 34.9789 72.7692 34.9484C72.6574 34.9179 72.5353 34.9026 72.4031 34.9026C72.1082 34.9026 71.8947 34.9433 71.7574 35.0195C71.6252 35.0958 71.5032 35.2076 71.3863 35.355L71.01 39.111H69.2305L69.8101 33.3118H71.554L71.4676 34.1911H71.493C71.5642 34.0081 71.6659 33.8506 71.793 33.7286C71.9303 33.5964 72.0777 33.4948 72.2404 33.4186C72.4082 33.3322 72.5862 33.2712 72.7692 33.2356C72.9523 33.1949 73.1302 33.1797 73.3082 33.1797L73.115 35.0653Z" fill="black"/>
<path fill-rule="evenodd" clip-rule="evenodd" d="M75.8563 39.1128L75.9326 38.3403H75.9071C75.6936 38.6351 75.4445 38.8587 75.1546 39.0213C74.8699 39.1738 74.5649 39.2501 74.2395 39.2501C73.8835 39.2501 73.609 39.1332 73.4209 38.9044C73.2378 38.6656 73.1666 38.3454 73.2022 37.9439L73.6649 33.3086H75.4445L75.0326 37.4102C75.0174 37.5627 75.0326 37.6897 75.0733 37.7914C75.1241 37.8829 75.236 37.9286 75.4089 37.9286C75.6021 37.9286 75.7648 37.8473 75.897 37.6846L76.0037 37.5474L76.4258 33.3086H78.2053L77.6257 39.1078H75.8563V39.1128Z" fill="black"/>
</svg>
