<svg width="126" height="33" viewBox="0 0 126 33" fill="none" xmlns="http://www.w3.org/2000/svg">
<path d="M122.933 0.488281H3.3877C1.17598 0.488281 0.382812 1.27099 0.382812 3.43613V29.8397C0.382812 31.9541 1.20141 32.7724 3.31653 32.7724H122.953C125.154 32.7724 125.958 31.9846 125.958 29.8143C125.968 21.0419 125.958 12.2746 125.958 3.50221C125.963 1.25574 125.19 0.488281 122.933 0.488281ZM123.1 28.8131C123.1 29.6314 122.938 29.8906 122.053 29.8804C82.7809 29.855 43.5088 29.855 4.23172 29.8753C3.51482 29.8753 3.25043 29.7483 3.25043 28.9452C3.29111 20.7268 3.29111 12.5084 3.25043 4.27983C3.25043 3.46155 3.53006 3.36498 4.24188 3.36498C23.8932 3.38023 43.5444 3.37514 63.2008 3.37514C82.7605 3.37514 102.32 3.39039 121.87 3.34973C122.922 3.34973 123.11 3.65976 123.105 4.63052C123.06 12.6965 123.07 20.7522 123.1 28.8131Z" fill="black"/>
<path d="M27.0547 10.0119C27.0445 14.515 27.0394 19.0131 27.0547 23.5162C27.0649 24.0142 26.9225 24.1972 26.409 24.1718C25.4633 24.1413 24.5277 24.1261 23.5922 24.1769C22.9516 24.2176 22.7634 24.0193 22.7736 23.3739C22.8143 20.8224 22.7889 18.2609 22.7889 15.6993V14.9369C22.7279 14.9471 22.6618 14.9471 22.6007 14.9471C21.8432 17.7119 21.0602 20.4717 20.3433 23.2417C20.1653 23.9583 19.8602 24.2023 19.1027 24.1871C16.7537 24.1311 16.7537 24.1616 16.1283 21.8694C15.4826 19.5112 14.8419 17.1529 14.0437 14.7895C14.0284 15.0182 14.003 15.2418 14.003 15.4706C14.003 18.1236 13.9877 20.7767 14.0284 23.4298C14.0386 24.0397 13.8555 24.2125 13.2658 24.1769C12.3302 24.121 11.3845 24.1362 10.449 24.1718C9.96598 24.1871 9.76259 24.0803 9.76767 23.5416C9.78292 19.0385 9.78292 14.5405 9.76767 10.0374C9.76767 9.5901 9.87445 9.41221 10.3626 9.42238C12.1116 9.44779 13.8606 9.46304 15.6097 9.41221C16.2401 9.3868 16.2554 9.78832 16.352 10.1848C16.9469 12.6345 17.5316 15.0843 18.1265 17.5391C18.1875 17.8136 18.2739 18.0779 18.4214 18.6166C19.001 16.2583 19.5145 14.1694 20.0433 12.0754C20.2619 11.2114 20.1856 10.0221 20.8161 9.56977C21.4008 9.14792 22.494 9.43763 23.3685 9.42746C24.4006 9.4173 25.4378 9.45287 26.4751 9.41221C26.9428 9.39188 27.0598 9.55961 27.0547 10.0119Z" fill="black"/>
<path d="M109.616 8.86508C104.964 8.77868 101.919 11.8129 101.832 16.6159C101.741 21.4392 104.603 24.5548 109.194 24.631C113.745 24.7022 116.836 21.5663 116.933 16.7785C117.009 12.189 114.009 8.93623 109.616 8.86508ZM111.772 19.4875C111.162 20.4938 110.288 20.9869 109.103 20.875C107.923 20.7734 107.089 20.1889 106.683 19.0809C106.118 17.5765 106.113 16.0365 106.693 14.5321C107.176 13.2513 108.162 12.5804 109.418 12.6058C110.715 12.621 111.681 13.3783 112.143 14.6998C112.387 15.3808 112.423 16.0822 112.423 16.7989C112.393 17.7391 112.276 18.6591 111.772 19.4875Z" fill="black"/>
<path d="M97.9474 18.8145C97.7288 18.4485 97.6728 18.2859 98.105 18.0013C100.129 16.6798 100.8 14.8095 100.144 12.563C99.5286 10.469 98.1762 9.48808 95.6797 9.44742C93.2189 9.40168 90.7631 9.43726 88.3022 9.40676C87.7633 9.3966 87.5853 9.53383 87.5904 10.1031C87.6159 14.535 87.6057 18.967 87.5904 23.404C87.5803 23.9732 87.6972 24.207 88.3328 24.1765C89.3344 24.1206 90.3411 24.1206 91.3376 24.1765C91.9834 24.2172 92.0851 23.9427 92.0647 23.3887C92.024 22.2248 92.024 21.0559 92.0749 19.892C92.0901 19.587 91.7495 19.0432 92.4104 18.972C92.9189 18.911 93.3714 18.9009 93.6663 19.5413C94.2968 20.9136 95.0544 22.2401 95.7509 23.5819C95.9238 23.9072 96.0611 24.1816 96.5237 24.1765C97.9779 24.146 99.427 24.1613 101.059 24.1613C99.9557 22.2706 98.9643 20.5324 97.9474 18.8145ZM96 14.6011C95.8729 15.272 95.4763 15.704 94.8052 15.826C94.4849 15.887 94.1595 15.9022 93.8392 15.9175C92.0596 15.9784 92.0596 15.9734 92.0596 14.1691C92.0596 12.4512 92.0596 12.4512 94.0171 12.5122C95.5221 12.563 96.239 13.3101 96 14.6011Z" fill="black"/>
<path d="M71.0144 22.9367C69.0061 24.5427 66.7181 24.7613 64.3081 24.4766C62.315 24.2327 60.6219 23.3534 59.2389 21.8846C58.8474 21.4729 58.8322 21.2188 59.3559 20.9545C59.6762 20.7969 59.9711 20.5936 60.2558 20.3852C61.3388 19.5974 62.2387 18.7944 63.5759 20.309C64.4606 21.3103 66.0063 21.2391 67.3486 20.8376C67.8163 20.6953 68.2637 20.4259 68.2383 19.8312C68.2129 19.2925 67.8112 19.0587 67.3384 18.9469C66.1436 18.6724 64.9335 18.4488 63.7488 18.1489C60.9676 17.4374 59.7067 16.0651 59.6864 13.8085C59.6762 11.4604 61.0896 9.77297 63.7996 9.14274C66.6571 8.47693 69.3213 8.93944 71.6551 10.8352C72.1533 11.2418 72.2804 11.5468 71.6703 11.9991C70.8975 12.5785 70.2009 13.2545 69.4433 13.9101C68.6807 12.98 67.7197 12.421 66.5452 12.2532C66.2656 12.2126 65.9605 12.1973 65.686 12.2532C65.0148 12.3854 64.2013 12.5175 64.186 13.3612C64.1606 14.1897 64.9741 14.2659 65.5995 14.393C66.9367 14.6573 68.2638 14.9063 69.5654 15.3078C73.5973 16.5327 73.1194 21.2391 71.0144 22.9367Z" fill="black"/>
<path d="M39.2034 9.87223C39.0458 9.43513 38.7559 9.40972 38.3746 9.41989C37.1493 9.43513 35.9138 9.47579 34.6884 9.40464C34.063 9.37414 33.8546 9.6486 33.6664 10.1619C33.036 11.9866 32.3547 13.8061 31.6886 15.6256C30.6666 18.4363 29.6447 21.252 28.582 24.1642C29.8379 24.1642 31.0022 24.0778 32.1411 24.1896C33.1631 24.2913 33.6258 23.9152 33.7325 22.9546C33.8088 22.2685 34.1596 21.9889 34.8969 22.055C35.7612 22.1312 36.6459 22.1566 37.5103 22.055C38.5729 21.9279 39.1169 22.2888 39.2593 23.3561C39.3051 23.7475 39.3508 24.1896 39.9762 24.1744C41.3643 24.1337 42.7574 24.1592 44.1302 24.1592C44.1454 24.0473 44.1759 23.9813 44.1607 23.9254C42.5133 19.2393 40.8507 14.5634 39.2034 9.87223ZM37.4645 18.8022H34.9579C35.4663 17.0792 35.9239 15.5087 36.4629 13.6841C36.9713 15.4223 37.4086 16.9318 37.8458 18.4464C37.9475 18.792 37.6984 18.8022 37.4645 18.8022Z" fill="black"/>
<path d="M55.0247 24.1636C52.274 24.1636 49.5183 24.123 46.7727 24.189C45.9388 24.2043 45.766 23.94 45.7914 23.1573C45.8473 21.0277 45.8066 18.888 45.8066 16.7584C45.8066 14.5577 45.8321 12.357 45.7914 10.1562C45.7812 9.54126 45.9694 9.40912 46.5541 9.4142C49.7572 9.4447 52.9655 9.4447 56.1636 9.4142C56.789 9.4142 56.9924 9.48536 56.7788 10.1867C56.6212 10.7255 56.6212 11.3811 56.7788 11.9199C57.0076 12.667 56.6924 12.6772 56.1331 12.667C54.4451 12.6416 52.7672 12.6772 51.0792 12.6416C50.4843 12.6314 50.2301 12.7483 50.2454 13.4243C50.2759 14.8525 50.2352 14.8525 51.6842 14.8525C53.1384 14.8525 54.5976 14.8779 56.0467 14.8372C56.6568 14.822 56.8907 14.944 56.8907 15.625C56.8805 18.029 56.9161 18.029 54.4959 18.029C53.3011 18.029 52.1012 18.0545 50.9063 18.0189C50.408 18.0036 50.2504 18.1459 50.2352 18.6593C50.1488 20.9362 50.1335 20.9362 52.3757 20.9362C53.835 20.9362 55.2891 20.9617 56.7483 20.921C57.3127 20.9057 57.5211 21.0226 57.5313 21.6529C57.5364 24.1636 57.5618 24.1636 55.0247 24.1636Z" fill="black"/>
<path d="M85.6134 12.8758C85.1608 13.5061 83.8745 13.069 82.9491 13.0537C82.217 13.0385 82.0339 13.257 82.0441 13.9736C82.0899 17.0791 82.0339 20.1845 82.0848 23.2848C82.1 24.0319 81.8814 24.2301 81.1645 24.1742C80.3001 24.1132 79.4155 24.1132 78.5511 24.1742C77.8342 24.2301 77.6207 24.0268 77.6308 23.2746C77.6766 20.1743 77.6207 17.0689 77.6715 13.9635C77.6868 13.2214 77.4783 12.9978 76.7512 13.0639C76.0496 13.1249 75.3327 13.0486 74.6209 13.0893C74.1277 13.1147 73.9192 12.9775 73.9497 12.4489C74.0056 11.4832 73.6447 10.2736 74.1124 9.62302C74.5598 8.99279 75.8513 9.46546 76.7665 9.42988C77.8037 9.38922 78.8358 9.41972 79.8731 9.41972C81.6221 9.41972 83.361 9.43497 85.11 9.40447C85.6083 9.39431 85.8116 9.51629 85.7811 10.0449C85.7252 11.0105 86.076 12.2303 85.6134 12.8758Z" fill="black"/>
</svg>
