<svg width="16" height="19" viewBox="0 0 16 19" fill="none" xmlns="http://www.w3.org/2000/svg">
<g clip-path="url(#clip0_25_2)">
<path d="M8.397 0.015C9.397 0 10.397 0.007 11.397 0C11.4273 1.19719 11.9063 2.33931 12.739 3.2C13.6388 4.00702 14.783 4.48935 15.989 4.57V7.66C14.876 7.63302 13.7801 7.37988 12.768 6.916C12.3382 6.70882 11.9247 6.46947 11.531 6.2C11.523 8.439 11.539 10.678 11.516 12.91C11.4575 13.9934 11.0992 15.0393 10.481 15.931C9.97172 16.6701 9.29545 17.2788 8.50703 17.7078C7.7186 18.1367 6.84019 18.3739 5.943 18.4C4.84503 18.4499 3.7567 18.1751 2.814 17.61C2.03795 17.1492 1.38052 16.5132 0.894315 15.7528C0.408111 14.9924 0.106633 14.1288 0.0140014 13.231C-0.000998606 12.848 -0.0089985 12.464 0.0060015 12.088C0.0839238 11.3012 0.32264 10.5388 0.70735 9.848C1.09206 9.15725 1.61456 8.55287 2.24246 8.07236C2.87036 7.59185 3.59027 7.24544 4.35756 7.05461C5.12485 6.86378 5.92316 6.8326 6.703 6.963C6.718 8.098 6.672 9.233 6.672 10.363C6.34475 10.2481 5.99801 10.1991 5.65174 10.2187C5.30547 10.2384 4.9665 10.3263 4.65433 10.4774C4.34215 10.6285 4.06294 10.8399 3.83274 11.0993C3.60255 11.3587 3.42591 11.6611 3.313 11.989C3.19295 12.389 3.15652 12.8094 3.206 13.224C3.30598 13.8559 3.63458 14.4291 4.12939 14.8347C4.6242 15.2403 5.25074 15.45 5.89 15.424C6.31888 15.4113 6.7378 15.2917 7.10873 15.076C7.47965 14.8604 7.79083 14.5555 8.014 14.189C8.18483 13.9484 8.29277 13.6689 8.328 13.376C8.405 12.003 8.374 10.638 8.382 9.266C8.39 6.176 8.374 3.093 8.397 0.01V0.015Z" fill="white"/>
</g>
<defs>
<clipPath id="clip0_25_2">
<rect width="15.989" height="18.405" fill="white"/>
</clipPath>
</defs>
</svg>
